<?xml version="1.0" encoding="UTF-8" standalone="no"?>
<!DOCTYPE svg PUBLIC "-//W3C//DTD SVG 1.1//EN"
 "http://www.w3.org/Graphics/SVG/1.1/DTD/svg11.dtd">
<!-- Generated by graphviz version 2.40.1 (20161225.0304)
 -->
<!-- Title: %3 Pages: 1 -->
<svg width="1509pt" height="782pt"
 viewBox="0.00 0.00 1509.05 781.51" xmlns="http://www.w3.org/2000/svg" xmlns:xlink="http://www.w3.org/1999/xlink">
<g id="graph0" class="graph" transform="scale(1 1) rotate(0) translate(4 777.5067)">
<title>%3</title>
<polygon fill="#ffffff" stroke="transparent" points="-4,4 -4,-777.5067 1505.0488,-777.5067 1505.0488,4 -4,4"/>
<!-- 1 -->
<g id="node1" class="node">
<title>1</title>
<ellipse fill="none" stroke="#000000" cx="488" cy="-709.0067" rx="307.6829" ry="37.4533"/>
<text text-anchor="middle" x="488" y="-720.3067" font-family="Times,serif" font-size="14.00" fill="#000000">1</text>
<text text-anchor="middle" x="488" y="-705.3067" font-family="Times,serif" font-size="14.00" fill="#000000">(3 | &#45;5 | 6) &amp; (1 | 3 | 8) &amp; (2 | 5 | &#45;7) &amp; (1 | 4 | 8) &amp; (3 | 8 | 9)</text>
<text text-anchor="middle" x="488" y="-690.3067" font-family="Times,serif" font-size="14.00" fill="#000000">(3 | &#45;5 | 6) &amp; (1 | 3 | 8) &amp; (2 | 5 | &#45;7) &amp; (1 | 4 | 8) &amp; (3 | 8 | 9)</text>
</g>
<!-- 2 -->
<g id="node2" class="node">
<title>2</title>
<ellipse fill="none" stroke="#000000" cx="288" cy="-571.03" rx="121.7449" ry="37.4533"/>
<text text-anchor="middle" x="288" y="-582.33" font-family="Times,serif" font-size="14.00" fill="#000000">2</text>
<text text-anchor="middle" x="288" y="-567.33" font-family="Times,serif" font-size="14.00" fill="#000000">(2 | 5 | &#45;7) &amp; (1 | 4 | 8)</text>
<text text-anchor="middle" x="288" y="-552.33" font-family="Times,serif" font-size="14.00" fill="#000000">(2 | 5 | &#45;7) &amp; (1 | 4 | 8)</text>
</g>
<!-- 1&#45;&gt;2 -->
<g id="edge1" class="edge">
<title>1&#45;&gt;2</title>
<path fill="none" stroke="#000000" d="M434.4037,-672.0315C407.14,-653.2228 373.9635,-630.3348 346.0904,-611.1057"/>
<polygon fill="#000000" stroke="#000000" points="347.8417,-608.0617 337.6229,-605.264 343.8666,-613.8236 347.8417,-608.0617"/>
</g>
<!-- 3 -->
<g id="node3" class="node">
<title>3</title>
<ellipse fill="none" stroke="#000000" cx="688" cy="-571.03" rx="260.4308" ry="37.4533"/>
<text text-anchor="middle" x="688" y="-582.33" font-family="Times,serif" font-size="14.00" fill="#000000">3</text>
<text text-anchor="middle" x="688" y="-567.33" font-family="Times,serif" font-size="14.00" fill="#000000">(&#45;5 | 6) &amp; (1 | 8) &amp; (2 | 5 | &#45;7) &amp; (1 | 4 | 8) &amp; (8 | 9)</text>
<text text-anchor="middle" x="688" y="-552.33" font-family="Times,serif" font-size="14.00" fill="#000000">(&#45;5 | 6) &amp; (1 | 8) &amp; (2 | 5 | &#45;7) &amp; (1 | 4 | 8) &amp; (8 | 9)</text>
</g>
<!-- 1&#45;&gt;3 -->
<g id="edge2" class="edge">
<title>1&#45;&gt;3</title>
<path fill="none" stroke="#000000" d="M541.5963,-672.0315C567.7065,-654.0185 599.2399,-632.2642 626.3442,-613.5653"/>
<polygon fill="#000000" stroke="#000000" points="628.3591,-616.4275 634.6028,-607.8679 624.384,-610.6656 628.3591,-616.4275"/>
</g>
<!-- 4 -->
<g id="node4" class="node">
<title>4</title>
<ellipse fill="none" stroke="#000000" cx="109" cy="-460.0767" rx="57.0522" ry="37.4533"/>
<text text-anchor="middle" x="109" y="-471.3767" font-family="Times,serif" font-size="14.00" fill="#000000">4</text>
<text text-anchor="middle" x="109" y="-456.3767" font-family="Times,serif" font-size="14.00" fill="#000000">(1 | 4 | 8)</text>
<text text-anchor="middle" x="109" y="-441.3767" font-family="Times,serif" font-size="14.00" fill="#000000">(1 | 4 | 8)</text>
</g>
<!-- 2&#45;&gt;4 -->
<g id="edge3" class="edge">
<title>2&#45;&gt;4</title>
<path fill="none" stroke="#000000" d="M233.8083,-537.4393C210.1765,-522.7911 182.6334,-505.7185 159.4426,-491.3436"/>
<polygon fill="#000000" stroke="#000000" points="161.1284,-488.2708 150.7848,-485.9771 157.4405,-494.2205 161.1284,-488.2708"/>
</g>
<!-- 5 -->
<g id="node5" class="node">
<title>5</title>
<ellipse fill="none" stroke="#000000" cx="290" cy="-460.0767" rx="105.218" ry="37.4533"/>
<text text-anchor="middle" x="290" y="-471.3767" font-family="Times,serif" font-size="14.00" fill="#000000">5</text>
<text text-anchor="middle" x="290" y="-456.3767" font-family="Times,serif" font-size="14.00" fill="#000000">(5 | &#45;7) &amp; (1 | 4 | 8)</text>
<text text-anchor="middle" x="290" y="-441.3767" font-family="Times,serif" font-size="14.00" fill="#000000">(5 | &#45;7) &amp; (1 | 4 | 8)</text>
</g>
<!-- 2&#45;&gt;5 -->
<g id="edge4" class="edge">
<title>2&#45;&gt;5</title>
<path fill="none" stroke="#000000" d="M288.6771,-533.4663C288.8253,-525.2424 288.9842,-516.4302 289.1386,-507.867"/>
<polygon fill="#000000" stroke="#000000" points="292.6427,-507.6633 289.3236,-497.6018 285.6438,-507.537 292.6427,-507.6633"/>
</g>
<!-- 6 -->
<g id="node6" class="node">
<title>6</title>
<ellipse fill="none" stroke="#000000" cx="685" cy="-460.0767" rx="176.5537" ry="37.4533"/>
<text text-anchor="middle" x="685" y="-471.3767" font-family="Times,serif" font-size="14.00" fill="#000000">6</text>
<text text-anchor="middle" x="685" y="-456.3767" font-family="Times,serif" font-size="14.00" fill="#000000">(6) &amp; (1 | 8) &amp; (1 | 4 | 8) &amp; (8 | 9)</text>
<text text-anchor="middle" x="685" y="-441.3767" font-family="Times,serif" font-size="14.00" fill="#000000">(6) &amp; (1 | 8) &amp; (1 | 4 | 8) &amp; (8 | 9)</text>
</g>
<!-- 3&#45;&gt;6 -->
<g id="edge5" class="edge">
<title>3&#45;&gt;6</title>
<path fill="none" stroke="#000000" d="M686.9843,-533.4663C686.762,-525.2424 686.5237,-516.4302 686.2922,-507.867"/>
<polygon fill="#000000" stroke="#000000" points="689.7837,-507.5035 686.0146,-497.6018 682.7863,-507.6928 689.7837,-507.5035"/>
</g>
<!-- 7 -->
<g id="node7" class="node">
<title>7</title>
<ellipse fill="none" stroke="#000000" cx="1076" cy="-460.0767" rx="195.7372" ry="37.4533"/>
<text text-anchor="middle" x="1076" y="-471.3767" font-family="Times,serif" font-size="14.00" fill="#000000">7</text>
<text text-anchor="middle" x="1076" y="-456.3767" font-family="Times,serif" font-size="14.00" fill="#000000">(1 | 8) &amp; (2 | &#45;7) &amp; (1 | 4 | 8) &amp; (8 | 9)</text>
<text text-anchor="middle" x="1076" y="-441.3767" font-family="Times,serif" font-size="14.00" fill="#000000">(1 | 8) &amp; (2 | &#45;7) &amp; (1 | 4 | 8) &amp; (8 | 9)</text>
</g>
<!-- 3&#45;&gt;7 -->
<g id="edge6" class="edge">
<title>3&#45;&gt;7</title>
<path fill="none" stroke="#000000" d="M805.2023,-537.5146C853.3099,-523.7577 908.9309,-507.8522 957.2025,-494.0483"/>
<polygon fill="#000000" stroke="#000000" points="958.4175,-497.3413 967.0698,-491.2267 956.4928,-490.611 958.4175,-497.3413"/>
</g>
<!-- 8 -->
<g id="node8" class="node">
<title>8</title>
<ellipse fill="none" stroke="#000000" cx="27" cy="-349.1234" rx="27" ry="26.7407"/>
<text text-anchor="middle" x="27" y="-352.9234" font-family="Times,serif" font-size="14.00" fill="#000000">8</text>
<text text-anchor="middle" x="27" y="-337.9234" font-family="Times,serif" font-size="14.00" fill="#000000">T</text>
</g>
<!-- 4&#45;&gt;8 -->
<g id="edge7" class="edge">
<title>4&#45;&gt;8</title>
<path fill="none" stroke="#000000" d="M83.9517,-426.1842C72.8489,-411.161 59.897,-393.636 49.1524,-379.0976"/>
<polygon fill="#000000" stroke="#000000" points="51.8701,-376.8861 43.1119,-370.9242 46.2407,-381.0466 51.8701,-376.8861"/>
</g>
<!-- 9 -->
<g id="node9" class="node">
<title>9</title>
<ellipse fill="none" stroke="#000000" cx="114" cy="-349.1234" rx="41.9398" ry="37.4533"/>
<text text-anchor="middle" x="114" y="-360.4234" font-family="Times,serif" font-size="14.00" fill="#000000">9</text>
<text text-anchor="middle" x="114" y="-345.4234" font-family="Times,serif" font-size="14.00" fill="#000000">(4 | 8)</text>
<text text-anchor="middle" x="114" y="-330.4234" font-family="Times,serif" font-size="14.00" fill="#000000">(4 | 8)</text>
</g>
<!-- 4&#45;&gt;9 -->
<g id="edge8" class="edge">
<title>4&#45;&gt;9</title>
<path fill="none" stroke="#000000" d="M110.6928,-422.513C111.0634,-414.2891 111.4605,-405.4768 111.8464,-396.9137"/>
<polygon fill="#000000" stroke="#000000" points="115.3551,-396.7959 112.309,-386.6485 108.3622,-396.4807 115.3551,-396.7959"/>
</g>
<!-- 10 -->
<g id="node10" class="node">
<title>10</title>
<ellipse fill="none" stroke="#ff0000" cx="252" cy="-349.1234" rx="57.0522" ry="37.4533"/>
<text text-anchor="middle" x="252" y="-360.4234" font-family="Times,serif" font-size="14.00" fill="#000000">10</text>
<text text-anchor="middle" x="252" y="-345.4234" font-family="Times,serif" font-size="14.00" fill="#000000">(1 | 4 | 8)</text>
<text text-anchor="middle" x="252" y="-330.4234" font-family="Times,serif" font-size="14.00" fill="#000000">(1 | 4 | 8)</text>
</g>
<!-- 5&#45;&gt;10 -->
<g id="edge9" class="edge">
<title>5&#45;&gt;10</title>
<path fill="none" stroke="#000000" d="M277.2408,-422.8222C274.2324,-414.038 270.989,-404.5681 267.8623,-395.4386"/>
<polygon fill="#000000" stroke="#000000" points="271.0832,-394.0408 264.5319,-385.7143 264.4609,-396.3089 271.0832,-394.0408"/>
</g>
<!-- 11 -->
<g id="node11" class="node">
<title>11</title>
<ellipse fill="none" stroke="#000000" cx="417" cy="-349.1234" rx="89.6056" ry="37.4533"/>
<text text-anchor="middle" x="417" y="-360.4234" font-family="Times,serif" font-size="14.00" fill="#000000">11</text>
<text text-anchor="middle" x="417" y="-345.4234" font-family="Times,serif" font-size="14.00" fill="#000000">(&#45;7) &amp; (1 | 4 | 8)</text>
<text text-anchor="middle" x="417" y="-330.4234" font-family="Times,serif" font-size="14.00" fill="#000000">(&#45;7) &amp; (1 | 4 | 8)</text>
</g>
<!-- 5&#45;&gt;11 -->
<g id="edge10" class="edge">
<title>5&#45;&gt;11</title>
<path fill="none" stroke="#000000" d="M329.8351,-425.2748C342.7267,-414.0121 357.1369,-401.4227 370.4699,-389.7744"/>
<polygon fill="#000000" stroke="#000000" points="372.9479,-392.257 378.176,-383.0419 368.3424,-386.9854 372.9479,-392.257"/>
</g>
<!-- 12 -->
<g id="node12" class="node">
<title>12</title>
<ellipse fill="none" stroke="#000000" cx="684" cy="-349.1234" rx="147.5709" ry="37.4533"/>
<text text-anchor="middle" x="684" y="-360.4234" font-family="Times,serif" font-size="14.00" fill="#000000">12</text>
<text text-anchor="middle" x="684" y="-345.4234" font-family="Times,serif" font-size="14.00" fill="#000000">(1 | 8) &amp; (1 | 4 | 8) &amp; (8 | 9)</text>
<text text-anchor="middle" x="684" y="-330.4234" font-family="Times,serif" font-size="14.00" fill="#000000">(1 | 8) &amp; (1 | 4 | 8) &amp; (8 | 9)</text>
</g>
<!-- 6&#45;&gt;12 -->
<g id="edge11" class="edge">
<title>6&#45;&gt;12</title>
<path fill="none" stroke="#000000" d="M684.6614,-422.513C684.5873,-414.2891 684.5079,-405.4768 684.4307,-396.9137"/>
<polygon fill="#000000" stroke="#000000" points="687.9283,-396.6165 684.3382,-386.6485 680.9286,-396.6796 687.9283,-396.6165"/>
</g>
<!-- 13 -->
<g id="node13" class="node">
<title>13</title>
<ellipse fill="none" stroke="#000000" cx="877" cy="-349.1234" rx="27" ry="26.7407"/>
<text text-anchor="middle" x="877" y="-352.9234" font-family="Times,serif" font-size="14.00" fill="#000000">13</text>
<text text-anchor="middle" x="877" y="-337.9234" font-family="Times,serif" font-size="14.00" fill="#000000">F</text>
</g>
<!-- 6&#45;&gt;13 -->
<g id="edge12" class="edge">
<title>6&#45;&gt;13</title>
<path fill="none" stroke="#000000" d="M769.5129,-427.0977C793.6243,-415.912 819.2374,-402.23 841,-386.6001 844.9158,-383.7877 848.7655,-380.5165 852.406,-377.1006"/>
<polygon fill="#000000" stroke="#000000" points="854.9303,-379.5262 859.539,-369.9862 849.987,-374.5699 854.9303,-379.5262"/>
</g>
<!-- 14 -->
<g id="node14" class="node">
<title>14</title>
<ellipse fill="none" stroke="#000000" cx="1065" cy="-349.1234" rx="89.6056" ry="37.4533"/>
<text text-anchor="middle" x="1065" y="-360.4234" font-family="Times,serif" font-size="14.00" fill="#000000">14</text>
<text text-anchor="middle" x="1065" y="-345.4234" font-family="Times,serif" font-size="14.00" fill="#000000">(2 | &#45;7) &amp; (8 | 9)</text>
<text text-anchor="middle" x="1065" y="-330.4234" font-family="Times,serif" font-size="14.00" fill="#000000">(2 | &#45;7) &amp; (8 | 9)</text>
</g>
<!-- 7&#45;&gt;14 -->
<g id="edge13" class="edge">
<title>7&#45;&gt;14</title>
<path fill="none" stroke="#000000" d="M1072.2759,-422.513C1071.4516,-414.1987 1070.5677,-405.2831 1069.71,-396.6315"/>
<polygon fill="#000000" stroke="#000000" points="1073.1898,-396.2543 1068.7203,-386.6485 1066.224,-396.945 1073.1898,-396.2543"/>
</g>
<!-- 15 -->
<g id="node15" class="node">
<title>15</title>
<ellipse fill="none" stroke="#000000" cx="1337" cy="-349.1234" rx="164.0976" ry="37.4533"/>
<text text-anchor="middle" x="1337" y="-360.4234" font-family="Times,serif" font-size="14.00" fill="#000000">15</text>
<text text-anchor="middle" x="1337" y="-345.4234" font-family="Times,serif" font-size="14.00" fill="#000000">(8) &amp; (2 | &#45;7) &amp; (4 | 8) &amp; (8 | 9)</text>
<text text-anchor="middle" x="1337" y="-330.4234" font-family="Times,serif" font-size="14.00" fill="#000000">(8) &amp; (2 | &#45;7) &amp; (4 | 8) &amp; (8 | 9)</text>
</g>
<!-- 7&#45;&gt;15 -->
<g id="edge14" class="edge">
<title>7&#45;&gt;15</title>
<path fill="none" stroke="#000000" d="M1156.4383,-425.8817C1186.0294,-413.3023 1219.6683,-399.0021 1249.8253,-386.1821"/>
<polygon fill="#000000" stroke="#000000" points="1251.2306,-389.3879 1259.0642,-382.2546 1248.492,-382.9458 1251.2306,-389.3879"/>
</g>
<!-- 16 -->
<g id="node16" class="node">
<title>16</title>
<ellipse fill="none" stroke="#000000" cx="78" cy="-238.1701" rx="27" ry="26.7407"/>
<text text-anchor="middle" x="78" y="-241.9701" font-family="Times,serif" font-size="14.00" fill="#000000">16</text>
<text text-anchor="middle" x="78" y="-226.9701" font-family="Times,serif" font-size="14.00" fill="#000000">T</text>
</g>
<!-- 9&#45;&gt;16 -->
<g id="edge15" class="edge">
<title>9&#45;&gt;16</title>
<path fill="none" stroke="#000000" d="M102.3118,-313.1C98.197,-300.418 93.5783,-286.183 89.4808,-273.5542"/>
<polygon fill="#000000" stroke="#000000" points="92.7413,-272.2625 86.3259,-263.8308 86.083,-274.4229 92.7413,-272.2625"/>
</g>
<!-- 17 -->
<g id="node17" class="node">
<title>17</title>
<ellipse fill="none" stroke="#000000" cx="150" cy="-238.1701" rx="27" ry="37.4533"/>
<text text-anchor="middle" x="150" y="-249.4701" font-family="Times,serif" font-size="14.00" fill="#000000">17</text>
<text text-anchor="middle" x="150" y="-234.4701" font-family="Times,serif" font-size="14.00" fill="#000000">(8)</text>
<text text-anchor="middle" x="150" y="-219.4701" font-family="Times,serif" font-size="14.00" fill="#000000">(8)</text>
</g>
<!-- 9&#45;&gt;17 -->
<g id="edge16" class="edge">
<title>9&#45;&gt;17</title>
<path fill="none" stroke="#000000" d="M125.6882,-313.1C128.8932,-303.222 132.404,-292.4017 135.736,-282.1322"/>
<polygon fill="#000000" stroke="#000000" points="139.103,-283.0956 138.8601,-272.5035 132.4447,-280.9352 139.103,-283.0956"/>
</g>
<!-- 18 -->
<g id="node18" class="node">
<title>18</title>
<ellipse fill="none" stroke="#000000" cx="337" cy="-238.1701" rx="27" ry="26.7407"/>
<text text-anchor="middle" x="337" y="-241.9701" font-family="Times,serif" font-size="14.00" fill="#000000">18</text>
<text text-anchor="middle" x="337" y="-226.9701" font-family="Times,serif" font-size="14.00" fill="#000000">F</text>
</g>
<!-- 11&#45;&gt;18 -->
<g id="edge17" class="edge">
<title>11&#45;&gt;18</title>
<path fill="none" stroke="#000000" d="M391.0263,-313.1C380.5984,-298.6374 368.7142,-282.155 358.7521,-268.3384"/>
<polygon fill="#000000" stroke="#000000" points="361.5154,-266.1864 352.8278,-260.122 355.8374,-270.2804 361.5154,-266.1864"/>
</g>
<!-- 19 -->
<g id="node19" class="node">
<title>19</title>
<ellipse fill="none" stroke="#ff0000" cx="439" cy="-238.1701" rx="57.0522" ry="37.4533"/>
<text text-anchor="middle" x="439" y="-249.4701" font-family="Times,serif" font-size="14.00" fill="#000000">19</text>
<text text-anchor="middle" x="439" y="-234.4701" font-family="Times,serif" font-size="14.00" fill="#000000">(1 | 4 | 8)</text>
<text text-anchor="middle" x="439" y="-219.4701" font-family="Times,serif" font-size="14.00" fill="#000000">(1 | 4 | 8)</text>
</g>
<!-- 11&#45;&gt;19 -->
<g id="edge18" class="edge">
<title>11&#45;&gt;19</title>
<path fill="none" stroke="#000000" d="M424.4482,-311.5597C426.0968,-303.2454 427.8646,-294.3298 429.58,-285.6782"/>
<polygon fill="#000000" stroke="#000000" points="433.0476,-286.1849 431.5595,-275.6951 426.1813,-284.8234 433.0476,-286.1849"/>
</g>
<!-- 20 -->
<g id="node20" class="node">
<title>20</title>
<ellipse fill="none" stroke="#000000" cx="568" cy="-238.1701" rx="41.9398" ry="37.4533"/>
<text text-anchor="middle" x="568" y="-249.4701" font-family="Times,serif" font-size="14.00" fill="#000000">20</text>
<text text-anchor="middle" x="568" y="-234.4701" font-family="Times,serif" font-size="14.00" fill="#000000">(8 | 9)</text>
<text text-anchor="middle" x="568" y="-219.4701" font-family="Times,serif" font-size="14.00" fill="#000000">(8 | 9)</text>
</g>
<!-- 12&#45;&gt;20 -->
<g id="edge19" class="edge">
<title>12&#45;&gt;20</title>
<path fill="none" stroke="#000000" d="M646.0173,-312.7931C632.6505,-300.0079 617.6669,-285.6762 604.4309,-273.0161"/>
<polygon fill="#000000" stroke="#000000" points="606.511,-270.1623 596.8652,-265.7794 601.6725,-275.2209 606.511,-270.1623"/>
</g>
<!-- 21 -->
<g id="node21" class="node">
<title>21</title>
<ellipse fill="none" stroke="#000000" cx="744" cy="-238.1701" rx="115.931" ry="37.4533"/>
<text text-anchor="middle" x="744" y="-249.4701" font-family="Times,serif" font-size="14.00" fill="#000000">21</text>
<text text-anchor="middle" x="744" y="-234.4701" font-family="Times,serif" font-size="14.00" fill="#000000">(8) &amp; (4 | 8) &amp; (8 | 9)</text>
<text text-anchor="middle" x="744" y="-219.4701" font-family="Times,serif" font-size="14.00" fill="#000000">(8) &amp; (4 | 8) &amp; (8 | 9)</text>
</g>
<!-- 12&#45;&gt;21 -->
<g id="edge20" class="edge">
<title>12&#45;&gt;21</title>
<path fill="none" stroke="#000000" d="M704.146,-311.8689C708.9463,-302.9922 714.1252,-293.4153 719.1101,-284.1971"/>
<polygon fill="#000000" stroke="#000000" points="722.3311,-285.5987 724.0091,-275.1376 716.1737,-282.269 722.3311,-285.5987"/>
</g>
<!-- 22 -->
<g id="node22" class="node">
<title>22</title>
<ellipse fill="none" stroke="#ff0000" cx="942" cy="-238.1701" rx="41.9398" ry="37.4533"/>
<text text-anchor="middle" x="942" y="-249.4701" font-family="Times,serif" font-size="14.00" fill="#000000">22</text>
<text text-anchor="middle" x="942" y="-234.4701" font-family="Times,serif" font-size="14.00" fill="#000000">(8 | 9)</text>
<text text-anchor="middle" x="942" y="-219.4701" font-family="Times,serif" font-size="14.00" fill="#000000">(8 | 9)</text>
</g>
<!-- 14&#45;&gt;22 -->
<g id="edge21" class="edge">
<title>14&#45;&gt;22</title>
<path fill="none" stroke="#000000" d="M1027.0923,-314.9284C1011.9449,-301.2645 994.5468,-285.5705 979.4457,-271.9483"/>
<polygon fill="#000000" stroke="#000000" points="981.5519,-269.1347 971.7822,-265.0354 976.8632,-274.3324 981.5519,-269.1347"/>
</g>
<!-- 23 -->
<g id="node23" class="node">
<title>23</title>
<ellipse fill="none" stroke="#000000" cx="1075" cy="-238.1701" rx="73.5782" ry="37.4533"/>
<text text-anchor="middle" x="1075" y="-249.4701" font-family="Times,serif" font-size="14.00" fill="#000000">23</text>
<text text-anchor="middle" x="1075" y="-234.4701" font-family="Times,serif" font-size="14.00" fill="#000000">(&#45;7) &amp; (8 | 9)</text>
<text text-anchor="middle" x="1075" y="-219.4701" font-family="Times,serif" font-size="14.00" fill="#000000">(&#45;7) &amp; (8 | 9)</text>
</g>
<!-- 14&#45;&gt;23 -->
<g id="edge22" class="edge">
<title>14&#45;&gt;23</title>
<path fill="none" stroke="#000000" d="M1068.3855,-311.5597C1069.1349,-303.2454 1069.9384,-294.3298 1070.7182,-285.6782"/>
<polygon fill="#000000" stroke="#000000" points="1074.2061,-285.969 1071.6179,-275.6951 1067.2343,-285.3406 1074.2061,-285.969"/>
</g>
<!-- 24 -->
<g id="node24" class="node">
<title>24</title>
<ellipse fill="none" stroke="#000000" cx="1292" cy="-238.1701" rx="44.5955" ry="37.4533"/>
<text text-anchor="middle" x="1292" y="-249.4701" font-family="Times,serif" font-size="14.00" fill="#000000">24</text>
<text text-anchor="middle" x="1292" y="-234.4701" font-family="Times,serif" font-size="14.00" fill="#000000">(2 | &#45;7)</text>
<text text-anchor="middle" x="1292" y="-219.4701" font-family="Times,serif" font-size="14.00" fill="#000000">(2 | &#45;7)</text>
</g>
<!-- 15&#45;&gt;24 -->
<g id="edge23" class="edge">
<title>15&#45;&gt;24</title>
<path fill="none" stroke="#000000" d="M1321.7651,-311.5597C1318.0938,-302.5077 1314.1334,-292.7429 1310.3369,-283.3821"/>
<polygon fill="#000000" stroke="#000000" points="1313.4607,-281.7716 1306.4588,-273.8202 1306.9739,-284.4026 1313.4607,-281.7716"/>
</g>
<!-- 25 -->
<g id="node25" class="node">
<title>25</title>
<ellipse fill="none" stroke="#000000" cx="1382" cy="-238.1701" rx="27" ry="26.7407"/>
<text text-anchor="middle" x="1382" y="-241.9701" font-family="Times,serif" font-size="14.00" fill="#000000">25</text>
<text text-anchor="middle" x="1382" y="-226.9701" font-family="Times,serif" font-size="14.00" fill="#000000">F</text>
</g>
<!-- 15&#45;&gt;25 -->
<g id="edge24" class="edge">
<title>15&#45;&gt;25</title>
<path fill="none" stroke="#000000" d="M1352.2349,-311.5597C1357.3453,-298.9596 1363.0157,-284.9784 1368.0246,-272.6281"/>
<polygon fill="#000000" stroke="#000000" points="1371.3615,-273.713 1371.8766,-263.1307 1364.8747,-271.0821 1371.3615,-273.713"/>
</g>
<!-- 26 -->
<g id="node26" class="node">
<title>26</title>
<ellipse fill="none" stroke="#000000" cx="114" cy="-127.2168" rx="27" ry="26.7407"/>
<text text-anchor="middle" x="114" y="-131.0168" font-family="Times,serif" font-size="14.00" fill="#000000">26</text>
<text text-anchor="middle" x="114" y="-116.0168" font-family="Times,serif" font-size="14.00" fill="#000000">T</text>
</g>
<!-- 17&#45;&gt;26 -->
<g id="edge25" class="edge">
<title>17&#45;&gt;26</title>
<path fill="none" stroke="#000000" d="M138.9051,-203.9751C134.6576,-190.8843 129.8055,-175.93 125.5193,-162.7196"/>
<polygon fill="#000000" stroke="#000000" points="128.7867,-161.4488 122.3712,-153.0172 122.1284,-163.6092 128.7867,-161.4488"/>
</g>
<!-- 27 -->
<g id="node27" class="node">
<title>27</title>
<ellipse fill="none" stroke="#000000" cx="186" cy="-127.2168" rx="27" ry="26.7407"/>
<text text-anchor="middle" x="186" y="-131.0168" font-family="Times,serif" font-size="14.00" fill="#000000">27</text>
<text text-anchor="middle" x="186" y="-116.0168" font-family="Times,serif" font-size="14.00" fill="#000000">F</text>
</g>
<!-- 17&#45;&gt;27 -->
<g id="edge26" class="edge">
<title>17&#45;&gt;27</title>
<path fill="none" stroke="#000000" d="M161.0949,-203.9751C165.3424,-190.8843 170.1945,-175.93 174.4807,-162.7196"/>
<polygon fill="#000000" stroke="#000000" points="177.8716,-163.6092 177.6288,-153.0172 171.2133,-161.4488 177.8716,-163.6092"/>
</g>
<!-- 28 -->
<g id="node28" class="node">
<title>28</title>
<ellipse fill="none" stroke="#000000" cx="540" cy="-127.2168" rx="27" ry="26.7407"/>
<text text-anchor="middle" x="540" y="-131.0168" font-family="Times,serif" font-size="14.00" fill="#000000">28</text>
<text text-anchor="middle" x="540" y="-116.0168" font-family="Times,serif" font-size="14.00" fill="#000000">T</text>
</g>
<!-- 20&#45;&gt;28 -->
<g id="edge27" class="edge">
<title>20&#45;&gt;28</title>
<path fill="none" stroke="#000000" d="M558.7542,-201.5323C555.643,-189.2039 552.1763,-175.467 549.0782,-163.1902"/>
<polygon fill="#000000" stroke="#000000" points="552.4189,-162.1237 546.5783,-153.2841 545.6316,-163.8365 552.4189,-162.1237"/>
</g>
<!-- 29 -->
<g id="node29" class="node">
<title>29</title>
<ellipse fill="none" stroke="#000000" cx="612" cy="-127.2168" rx="27" ry="37.4533"/>
<text text-anchor="middle" x="612" y="-138.5168" font-family="Times,serif" font-size="14.00" fill="#000000">29</text>
<text text-anchor="middle" x="612" y="-123.5168" font-family="Times,serif" font-size="14.00" fill="#000000">(9)</text>
<text text-anchor="middle" x="612" y="-108.5168" font-family="Times,serif" font-size="14.00" fill="#000000">(9)</text>
</g>
<!-- 20&#45;&gt;29 -->
<g id="edge28" class="edge">
<title>20&#45;&gt;29</title>
<path fill="none" stroke="#000000" d="M582.0428,-202.7587C586.2056,-192.2616 590.8076,-180.6569 595.1299,-169.7576"/>
<polygon fill="#000000" stroke="#000000" points="598.4052,-170.9926 598.8381,-160.4066 591.8982,-168.4121 598.4052,-170.9926"/>
</g>
<!-- 30 -->
<g id="node30" class="node">
<title>30</title>
<ellipse fill="none" stroke="#000000" cx="700" cy="-127.2168" rx="27" ry="26.7407"/>
<text text-anchor="middle" x="700" y="-131.0168" font-family="Times,serif" font-size="14.00" fill="#000000">30</text>
<text text-anchor="middle" x="700" y="-116.0168" font-family="Times,serif" font-size="14.00" fill="#000000">T</text>
</g>
<!-- 21&#45;&gt;30 -->
<g id="edge29" class="edge">
<title>21&#45;&gt;30</title>
<path fill="none" stroke="#000000" d="M729.2262,-200.9156C724.2226,-188.298 718.6578,-174.2656 713.7381,-161.8596"/>
<polygon fill="#000000" stroke="#000000" points="716.8937,-160.3224 709.9538,-152.3169 710.3867,-162.9029 716.8937,-160.3224"/>
</g>
<!-- 31 -->
<g id="node31" class="node">
<title>31</title>
<ellipse fill="none" stroke="#000000" cx="772" cy="-127.2168" rx="27" ry="26.7407"/>
<text text-anchor="middle" x="772" y="-131.0168" font-family="Times,serif" font-size="14.00" fill="#000000">31</text>
<text text-anchor="middle" x="772" y="-116.0168" font-family="Times,serif" font-size="14.00" fill="#000000">F</text>
</g>
<!-- 21&#45;&gt;31 -->
<g id="edge30" class="edge">
<title>21&#45;&gt;31</title>
<path fill="none" stroke="#000000" d="M753.4795,-200.6064C756.4981,-188.6447 759.8308,-175.4385 762.8273,-163.5645"/>
<polygon fill="#000000" stroke="#000000" points="766.3044,-164.09 765.3577,-153.5375 759.5172,-162.3771 766.3044,-164.09"/>
</g>
<!-- 32 -->
<g id="node32" class="node">
<title>32</title>
<ellipse fill="none" stroke="#000000" cx="993" cy="-127.2168" rx="27" ry="26.7407"/>
<text text-anchor="middle" x="993" y="-131.0168" font-family="Times,serif" font-size="14.00" fill="#000000">32</text>
<text text-anchor="middle" x="993" y="-116.0168" font-family="Times,serif" font-size="14.00" fill="#000000">F</text>
</g>
<!-- 23&#45;&gt;32 -->
<g id="edge31" class="edge">
<title>23&#45;&gt;32</title>
<path fill="none" stroke="#000000" d="M1049.0547,-203.0638C1038.1749,-188.3425 1025.6528,-171.3989 1015.2073,-157.2652"/>
<polygon fill="#000000" stroke="#000000" points="1017.7633,-154.8349 1009.0051,-148.8731 1012.1339,-158.9954 1017.7633,-154.8349"/>
</g>
<!-- 33 -->
<g id="node33" class="node">
<title>33</title>
<ellipse fill="none" stroke="#ff0000" cx="1080" cy="-127.2168" rx="41.9398" ry="37.4533"/>
<text text-anchor="middle" x="1080" y="-138.5168" font-family="Times,serif" font-size="14.00" fill="#000000">33</text>
<text text-anchor="middle" x="1080" y="-123.5168" font-family="Times,serif" font-size="14.00" fill="#000000">(8 | 9)</text>
<text text-anchor="middle" x="1080" y="-108.5168" font-family="Times,serif" font-size="14.00" fill="#000000">(8 | 9)</text>
</g>
<!-- 23&#45;&gt;33 -->
<g id="edge32" class="edge">
<title>23&#45;&gt;33</title>
<path fill="none" stroke="#000000" d="M1076.6928,-200.6064C1077.0634,-192.3824 1077.4605,-183.5702 1077.8464,-175.0071"/>
<polygon fill="#000000" stroke="#000000" points="1081.3551,-174.8893 1078.309,-164.7418 1074.3622,-174.5741 1081.3551,-174.8893"/>
</g>
<!-- 34 -->
<g id="node34" class="node">
<title>34</title>
<ellipse fill="none" stroke="#000000" cx="1255" cy="-127.2168" rx="27" ry="26.7407"/>
<text text-anchor="middle" x="1255" y="-131.0168" font-family="Times,serif" font-size="14.00" fill="#000000">34</text>
<text text-anchor="middle" x="1255" y="-116.0168" font-family="Times,serif" font-size="14.00" fill="#000000">T</text>
</g>
<!-- 24&#45;&gt;34 -->
<g id="edge33" class="edge">
<title>24&#45;&gt;34</title>
<path fill="none" stroke="#000000" d="M1279.8848,-201.8398C1275.6608,-189.1731 1270.9306,-174.9884 1266.7377,-162.4152"/>
<polygon fill="#000000" stroke="#000000" points="1269.9941,-161.1162 1263.5103,-152.737 1263.3536,-163.3307 1269.9941,-161.1162"/>
</g>
<!-- 35 -->
<g id="node35" class="node">
<title>35</title>
<ellipse fill="none" stroke="#000000" cx="1329" cy="-127.2168" rx="28.9828" ry="37.4533"/>
<text text-anchor="middle" x="1329" y="-138.5168" font-family="Times,serif" font-size="14.00" fill="#000000">35</text>
<text text-anchor="middle" x="1329" y="-123.5168" font-family="Times,serif" font-size="14.00" fill="#000000">(&#45;7)</text>
<text text-anchor="middle" x="1329" y="-108.5168" font-family="Times,serif" font-size="14.00" fill="#000000">(&#45;7)</text>
</g>
<!-- 24&#45;&gt;35 -->
<g id="edge34" class="edge">
<title>24&#45;&gt;35</title>
<path fill="none" stroke="#000000" d="M1304.1152,-201.8398C1307.3734,-192.0694 1310.9327,-181.3959 1314.3143,-171.2555"/>
<polygon fill="#000000" stroke="#000000" points="1317.643,-172.337 1317.4863,-161.7433 1311.0025,-170.1225 1317.643,-172.337"/>
</g>
<!-- 36 -->
<g id="node36" class="node">
<title>36</title>
<ellipse fill="none" stroke="#000000" cx="576" cy="-26.8701" rx="27" ry="26.7407"/>
<text text-anchor="middle" x="576" y="-30.6701" font-family="Times,serif" font-size="14.00" fill="#000000">36</text>
<text text-anchor="middle" x="576" y="-15.6701" font-family="Times,serif" font-size="14.00" fill="#000000">T</text>
</g>
<!-- 29&#45;&gt;36 -->
<g id="edge35" class="edge">
<title>29&#45;&gt;36</title>
<path fill="none" stroke="#000000" d="M599.9124,-93.5236C596.2592,-83.3408 592.2406,-72.1391 588.5575,-61.8729"/>
<polygon fill="#000000" stroke="#000000" points="591.8233,-60.611 585.152,-52.3803 585.2345,-62.9749 591.8233,-60.611"/>
</g>
<!-- 37 -->
<g id="node37" class="node">
<title>37</title>
<ellipse fill="none" stroke="#000000" cx="648" cy="-26.8701" rx="27" ry="26.7407"/>
<text text-anchor="middle" x="648" y="-30.6701" font-family="Times,serif" font-size="14.00" fill="#000000">37</text>
<text text-anchor="middle" x="648" y="-15.6701" font-family="Times,serif" font-size="14.00" fill="#000000">F</text>
</g>
<!-- 29&#45;&gt;37 -->
<g id="edge36" class="edge">
<title>29&#45;&gt;37</title>
<path fill="none" stroke="#000000" d="M624.0876,-93.5236C627.7408,-83.3408 631.7594,-72.1391 635.4425,-61.8729"/>
<polygon fill="#000000" stroke="#000000" points="638.7655,-62.9749 638.848,-52.3803 632.1767,-60.611 638.7655,-62.9749"/>
</g>
<!-- 38 -->
<g id="node38" class="node">
<title>38</title>
<ellipse fill="none" stroke="#000000" cx="1293" cy="-26.8701" rx="27" ry="26.7407"/>
<text text-anchor="middle" x="1293" y="-30.6701" font-family="Times,serif" font-size="14.00" fill="#000000">38</text>
<text text-anchor="middle" x="1293" y="-15.6701" font-family="Times,serif" font-size="14.00" fill="#000000">F</text>
</g>
<!-- 35&#45;&gt;38 -->
<g id="edge37" class="edge">
<title>35&#45;&gt;38</title>
<path fill="none" stroke="#000000" d="M1316.7115,-92.9638C1313.1368,-82.9995 1309.2267,-72.1006 1305.6313,-62.0785"/>
<polygon fill="#000000" stroke="#000000" points="1308.836,-60.6466 1302.1647,-52.4159 1302.2472,-63.0104 1308.836,-60.6466"/>
</g>
<!-- 39 -->
<g id="node39" class="node">
<title>39</title>
<ellipse fill="none" stroke="#000000" cx="1365" cy="-26.8701" rx="27" ry="26.7407"/>
<text text-anchor="middle" x="1365" y="-30.6701" font-family="Times,serif" font-size="14.00" fill="#000000">39</text>
<text text-anchor="middle" x="1365" y="-15.6701" font-family="Times,serif" font-size="14.00" fill="#000000">T</text>
</g>
<!-- 35&#45;&gt;39 -->
<g id="edge38" class="edge">
<title>35&#45;&gt;39</title>
<path fill="none" stroke="#000000" d="M1341.2885,-92.9638C1344.8632,-82.9995 1348.7733,-72.1006 1352.3687,-62.0785"/>
<polygon fill="#000000" stroke="#000000" points="1355.7528,-63.0104 1355.8353,-52.4159 1349.164,-60.6466 1355.7528,-63.0104"/>
</g>
<!-- stats -->
<g id="node40" class="node">
<title>stats</title>
<polygon fill="none" stroke="#000000" stroke-dasharray="1,5" points="813.5,-645.0067 813.5,-773.0067 1248.5,-773.0067 1248.5,-645.0067 813.5,-645.0067"/>
<text text-anchor="middle" x="1031" y="-757.8067" font-family="Times,serif" font-size="14.00" fill="#000000">Input set processed in 0.183 seconds</text>
<text text-anchor="middle" x="1031" y="-742.8067" font-family="Times,serif" font-size="14.00" fill="#000000">Problem ID: 4fb7aa4e244a8b3f3d2f0f139afe0fbf8d4e507e</text>
<text text-anchor="middle" x="1031" y="-727.8067" font-family="Times,serif" font-size="14.00" fill="#000000">Solution mode: NORMAL</text>
<text text-anchor="middle" x="1031" y="-712.8067" font-family="Times,serif" font-size="14.00" fill="#000000">Total number of nodes: 39</text>
<text text-anchor="middle" x="1031" y="-697.8067" font-family="Times,serif" font-size="14.00" fill="#000000">Number of unique nodes: 19</text>
<text text-anchor="middle" x="1031" y="-682.8067" font-family="Times,serif" font-size="14.00" fill="#000000">Number of redundant subtrees: 4</text>
<text text-anchor="middle" x="1031" y="-667.8067" font-family="Times,serif" font-size="14.00" fill="#000000">Number of leaves nodes: 16</text>
<text text-anchor="middle" x="1031" y="-652.8067" font-family="Times,serif" font-size="14.00" fill="#000000">Current memory usage: 17.6MiB</text>
</g>
</g>
</svg>
