<?xml version="1.0" encoding="UTF-8" standalone="no"?>
<!DOCTYPE svg PUBLIC "-//W3C//DTD SVG 1.1//EN"
 "http://www.w3.org/Graphics/SVG/1.1/DTD/svg11.dtd">
<!-- Generated by graphviz version 2.40.1 (20161225.0304)
 -->
<!-- Title: %3 Pages: 1 -->
<svg width="2311pt" height="914pt"
 viewBox="0.00 0.00 2310.61 913.67" xmlns="http://www.w3.org/2000/svg" xmlns:xlink="http://www.w3.org/1999/xlink">
<g id="graph0" class="graph" transform="scale(1 1) rotate(0) translate(4 909.6732)">
<title>%3</title>
<polygon fill="#ffffff" stroke="transparent" points="-4,4 -4,-909.6732 2306.6051,-909.6732 2306.6051,4 -4,4"/>
<!-- 1 -->
<g id="node1" class="node">
<title>1</title>
<ellipse fill="none" stroke="#000000" cx="712" cy="-841.1732" rx="307.6829" ry="37.4533"/>
<text text-anchor="middle" x="712" y="-852.4732" font-family="Times,serif" font-size="14.00" fill="#000000">1</text>
<text text-anchor="middle" x="712" y="-837.4732" font-family="Times,serif" font-size="14.00" fill="#000000">(3 | &#45;5 | 6) &amp; (1 | 3 | 8) &amp; (2 | 5 | &#45;7) &amp; (1 | 4 | 8) &amp; (3 | 8 | 9)</text>
<text text-anchor="middle" x="712" y="-822.4732" font-family="Times,serif" font-size="14.00" fill="#000000">(3 | &#45;5 | 6) &amp; (1 | 3 | 8) &amp; (2 | 5 | &#45;7) &amp; (1 | 4 | 8) &amp; (3 | 8 | 9)</text>
</g>
<!-- 2 -->
<g id="node2" class="node">
<title>2</title>
<ellipse fill="none" stroke="#000000" cx="410" cy="-703.1966" rx="182.3671" ry="37.4533"/>
<text text-anchor="middle" x="410" y="-714.4966" font-family="Times,serif" font-size="14.00" fill="#000000">2</text>
<text text-anchor="middle" x="410" y="-699.4966" font-family="Times,serif" font-size="14.00" fill="#000000">(1 | 3 | 8) &amp; (2 | 5 | &#45;7) &amp; (1 | 4 | 8)</text>
<text text-anchor="middle" x="410" y="-684.4966" font-family="Times,serif" font-size="14.00" fill="#000000">(1 | 3 | 8) &amp; (2 | 5 | &#45;7) &amp; (1 | 4 | 8)</text>
</g>
<!-- 1&#45;&gt;2 -->
<g id="edge1" class="edge">
<title>1&#45;&gt;2</title>
<path fill="none" stroke="#000000" d="M632.6531,-804.9215C589.9879,-785.4288 537.3875,-761.3969 494.0269,-741.5865"/>
<polygon fill="#000000" stroke="#000000" points="495.4716,-738.3986 484.9214,-737.4264 492.5626,-744.7655 495.4716,-738.3986"/>
</g>
<!-- 3 -->
<g id="node3" class="node">
<title>3</title>
<ellipse fill="none" stroke="#000000" cx="950" cy="-703.1966" rx="275.5435" ry="37.4533"/>
<text text-anchor="middle" x="950" y="-714.4966" font-family="Times,serif" font-size="14.00" fill="#000000">3</text>
<text text-anchor="middle" x="950" y="-699.4966" font-family="Times,serif" font-size="14.00" fill="#000000">(&#45;5 | 6) &amp; (1 | 3 | 8) &amp; (2 | 5 | &#45;7) &amp; (1 | 4 | 8) &amp; (8 | 9)</text>
<text text-anchor="middle" x="950" y="-684.4966" font-family="Times,serif" font-size="14.00" fill="#000000">(&#45;5 | 6) &amp; (1 | 3 | 8) &amp; (2 | 5 | &#45;7) &amp; (1 | 4 | 8) &amp; (8 | 9)</text>
</g>
<!-- 1&#45;&gt;3 -->
<g id="edge2" class="edge">
<title>1&#45;&gt;3</title>
<path fill="none" stroke="#000000" d="M775.467,-804.3793C806.9343,-786.1366 845.0799,-764.0223 877.674,-745.1264"/>
<polygon fill="#000000" stroke="#000000" points="879.814,-747.9315 886.7099,-739.888 876.3032,-741.8755 879.814,-747.9315"/>
</g>
<!-- 4 -->
<g id="node4" class="node">
<title>4</title>
<ellipse fill="none" stroke="#000000" cx="117" cy="-592.2433" rx="60.623" ry="37.4533"/>
<text text-anchor="middle" x="117" y="-603.5433" font-family="Times,serif" font-size="14.00" fill="#000000">4</text>
<text text-anchor="middle" x="117" y="-588.5433" font-family="Times,serif" font-size="14.00" fill="#000000">(2 | 5 | &#45;7)</text>
<text text-anchor="middle" x="117" y="-573.5433" font-family="Times,serif" font-size="14.00" fill="#000000">(2 | 5 | &#45;7)</text>
</g>
<!-- 2&#45;&gt;4 -->
<g id="edge3" class="edge">
<title>2&#45;&gt;4</title>
<path fill="none" stroke="#000000" d="M322.8836,-670.2073C276.4037,-652.6063 220.3241,-631.37 178.4383,-615.5087"/>
<polygon fill="#000000" stroke="#000000" points="179.5113,-612.1725 168.9198,-611.9043 177.0322,-618.7189 179.5113,-612.1725"/>
</g>
<!-- 5 -->
<g id="node5" class="node">
<title>5</title>
<ellipse fill="none" stroke="#000000" cx="410" cy="-592.2433" rx="150.7276" ry="37.4533"/>
<text text-anchor="middle" x="410" y="-603.5433" font-family="Times,serif" font-size="14.00" fill="#000000">5</text>
<text text-anchor="middle" x="410" y="-588.5433" font-family="Times,serif" font-size="14.00" fill="#000000">(3 | 8) &amp; (2 | 5 | &#45;7) &amp; (4 | 8)</text>
<text text-anchor="middle" x="410" y="-573.5433" font-family="Times,serif" font-size="14.00" fill="#000000">(3 | 8) &amp; (2 | 5 | &#45;7) &amp; (4 | 8)</text>
</g>
<!-- 2&#45;&gt;5 -->
<g id="edge4" class="edge">
<title>2&#45;&gt;5</title>
<path fill="none" stroke="#000000" d="M410,-665.6328C410,-657.4089 410,-648.5967 410,-640.0336"/>
<polygon fill="#000000" stroke="#000000" points="413.5001,-639.7683 410,-629.7683 406.5001,-639.7683 413.5001,-639.7683"/>
</g>
<!-- 6 -->
<g id="node6" class="node">
<title>6</title>
<ellipse fill="none" stroke="#000000" cx="950" cy="-592.2433" rx="256.8596" ry="37.4533"/>
<text text-anchor="middle" x="950" y="-603.5433" font-family="Times,serif" font-size="14.00" fill="#000000">6</text>
<text text-anchor="middle" x="950" y="-588.5433" font-family="Times,serif" font-size="14.00" fill="#000000">(6) &amp; (1 | 3 | 8) &amp; (2 | 5 | &#45;7) &amp; (1 | 4 | 8) &amp; (8 | 9)</text>
<text text-anchor="middle" x="950" y="-573.5433" font-family="Times,serif" font-size="14.00" fill="#000000">(6) &amp; (1 | 3 | 8) &amp; (2 | 5 | &#45;7) &amp; (1 | 4 | 8) &amp; (8 | 9)</text>
</g>
<!-- 3&#45;&gt;6 -->
<g id="edge5" class="edge">
<title>3&#45;&gt;6</title>
<path fill="none" stroke="#000000" d="M950,-665.6328C950,-657.4089 950,-648.5967 950,-640.0336"/>
<polygon fill="#000000" stroke="#000000" points="953.5001,-639.7683 950,-629.7683 946.5001,-639.7683 953.5001,-639.7683"/>
</g>
<!-- 7 -->
<g id="node7" class="node">
<title>7</title>
<ellipse fill="none" stroke="#000000" cx="1452" cy="-592.2433" rx="227.8769" ry="37.4533"/>
<text text-anchor="middle" x="1452" y="-603.5433" font-family="Times,serif" font-size="14.00" fill="#000000">7</text>
<text text-anchor="middle" x="1452" y="-588.5433" font-family="Times,serif" font-size="14.00" fill="#000000">(1 | 3 | 8) &amp; (2 | 5 | &#45;7) &amp; (1 | 4 | 8) &amp; (8 | 9)</text>
<text text-anchor="middle" x="1452" y="-573.5433" font-family="Times,serif" font-size="14.00" fill="#000000">(1 | 3 | 8) &amp; (2 | 5 | &#45;7) &amp; (1 | 4 | 8) &amp; (8 | 9)</text>
</g>
<!-- 3&#45;&gt;7 -->
<g id="edge6" class="edge">
<title>3&#45;&gt;7</title>
<path fill="none" stroke="#000000" d="M1094.5257,-671.2531C1160.7851,-656.6083 1239.196,-639.2777 1305.6733,-624.5848"/>
<polygon fill="#000000" stroke="#000000" points="1306.8045,-627.9193 1315.8135,-622.3435 1305.2938,-621.0842 1306.8045,-627.9193"/>
</g>
<!-- 8 -->
<g id="node8" class="node">
<title>8</title>
<ellipse fill="none" stroke="#000000" cx="27" cy="-481.2899" rx="27" ry="26.7407"/>
<text text-anchor="middle" x="27" y="-485.0899" font-family="Times,serif" font-size="14.00" fill="#000000">8</text>
<text text-anchor="middle" x="27" y="-470.0899" font-family="Times,serif" font-size="14.00" fill="#000000">T</text>
</g>
<!-- 4&#45;&gt;8 -->
<g id="edge7" class="edge">
<title>4&#45;&gt;8</title>
<path fill="none" stroke="#000000" d="M89.7528,-558.6525C77.1807,-543.1535 62.407,-524.9402 50.3533,-510.0803"/>
<polygon fill="#000000" stroke="#000000" points="52.9858,-507.7697 43.968,-502.2083 47.5494,-512.1794 52.9858,-507.7697"/>
</g>
<!-- 9 -->
<g id="node9" class="node">
<title>9</title>
<ellipse fill="none" stroke="#000000" cx="117" cy="-481.2899" rx="44.5955" ry="37.4533"/>
<text text-anchor="middle" x="117" y="-492.5899" font-family="Times,serif" font-size="14.00" fill="#000000">9</text>
<text text-anchor="middle" x="117" y="-477.5899" font-family="Times,serif" font-size="14.00" fill="#000000">(5 | &#45;7)</text>
<text text-anchor="middle" x="117" y="-462.5899" font-family="Times,serif" font-size="14.00" fill="#000000">(5 | &#45;7)</text>
</g>
<!-- 4&#45;&gt;9 -->
<g id="edge8" class="edge">
<title>4&#45;&gt;9</title>
<path fill="none" stroke="#000000" d="M117,-554.6795C117,-546.4556 117,-537.6434 117,-529.0802"/>
<polygon fill="#000000" stroke="#000000" points="120.5001,-528.8149 117,-518.815 113.5001,-528.815 120.5001,-528.8149"/>
</g>
<!-- 10 -->
<g id="node10" class="node">
<title>10</title>
<ellipse fill="none" stroke="#000000" cx="311" cy="-481.2899" rx="105.218" ry="37.4533"/>
<text text-anchor="middle" x="311" y="-492.5899" font-family="Times,serif" font-size="14.00" fill="#000000">10</text>
<text text-anchor="middle" x="311" y="-477.5899" font-family="Times,serif" font-size="14.00" fill="#000000">(2 | 5 | &#45;7) &amp; (4 | 8)</text>
<text text-anchor="middle" x="311" y="-462.5899" font-family="Times,serif" font-size="14.00" fill="#000000">(2 | 5 | &#45;7) &amp; (4 | 8)</text>
</g>
<!-- 5&#45;&gt;10 -->
<g id="edge9" class="edge">
<title>5&#45;&gt;10</title>
<path fill="none" stroke="#000000" d="M377.3093,-555.6055C368.5126,-545.7467 358.9123,-534.9872 349.8172,-524.7939"/>
<polygon fill="#000000" stroke="#000000" points="352.2516,-522.2651 342.9823,-517.1338 347.0284,-526.9255 352.2516,-522.2651"/>
</g>
<!-- 11 -->
<g id="node11" class="node">
<title>11</title>
<ellipse fill="none" stroke="#000000" cx="569" cy="-481.2899" rx="135.1148" ry="37.4533"/>
<text text-anchor="middle" x="569" y="-492.5899" font-family="Times,serif" font-size="14.00" fill="#000000">11</text>
<text text-anchor="middle" x="569" y="-477.5899" font-family="Times,serif" font-size="14.00" fill="#000000">(8) &amp; (2 | 5 | &#45;7) &amp; (4 | 8)</text>
<text text-anchor="middle" x="569" y="-462.5899" font-family="Times,serif" font-size="14.00" fill="#000000">(8) &amp; (2 | 5 | &#45;7) &amp; (4 | 8)</text>
</g>
<!-- 5&#45;&gt;11 -->
<g id="edge10" class="edge">
<title>5&#45;&gt;11</title>
<path fill="none" stroke="#000000" d="M460.7458,-556.8319C476.6113,-545.7605 494.2427,-533.457 510.5914,-522.0486"/>
<polygon fill="#000000" stroke="#000000" points="512.8098,-524.7685 519.0076,-516.1756 508.8039,-519.028 512.8098,-524.7685"/>
</g>
<!-- 12 -->
<g id="node12" class="node">
<title>12</title>
<ellipse fill="none" stroke="#ff0000" cx="950" cy="-481.2899" rx="227.8769" ry="37.4533"/>
<text text-anchor="middle" x="950" y="-492.5899" font-family="Times,serif" font-size="14.00" fill="#000000">12</text>
<text text-anchor="middle" x="950" y="-477.5899" font-family="Times,serif" font-size="14.00" fill="#000000">(1 | 3 | 8) &amp; (2 | 5 | &#45;7) &amp; (1 | 4 | 8) &amp; (8 | 9)</text>
<text text-anchor="middle" x="950" y="-462.5899" font-family="Times,serif" font-size="14.00" fill="#000000">(1 | 3 | 8) &amp; (2 | 5 | &#45;7) &amp; (1 | 4 | 8) &amp; (8 | 9)</text>
</g>
<!-- 6&#45;&gt;12 -->
<g id="edge11" class="edge">
<title>6&#45;&gt;12</title>
<path fill="none" stroke="#000000" d="M950,-554.6795C950,-546.4556 950,-537.6434 950,-529.0802"/>
<polygon fill="#000000" stroke="#000000" points="953.5001,-528.8149 950,-518.815 946.5001,-528.815 953.5001,-528.8149"/>
</g>
<!-- 13 -->
<g id="node13" class="node">
<title>13</title>
<ellipse fill="none" stroke="#000000" cx="1223" cy="-481.2899" rx="27" ry="26.7407"/>
<text text-anchor="middle" x="1223" y="-485.0899" font-family="Times,serif" font-size="14.00" fill="#000000">13</text>
<text text-anchor="middle" x="1223" y="-470.0899" font-family="Times,serif" font-size="14.00" fill="#000000">F</text>
</g>
<!-- 6&#45;&gt;13 -->
<g id="edge12" class="edge">
<title>6&#45;&gt;13</title>
<path fill="none" stroke="#000000" d="M1092.0018,-560.9762C1124.5998,-550.3961 1158.1335,-536.5866 1187,-518.7666 1191.1024,-516.2341 1195.0607,-513.1259 1198.7563,-509.7927"/>
<polygon fill="#000000" stroke="#000000" points="1201.2497,-512.2497 1205.9353,-502.7473 1196.3466,-507.2537 1201.2497,-512.2497"/>
</g>
<!-- 14 -->
<g id="node14" class="node">
<title>14</title>
<ellipse fill="none" stroke="#000000" cx="1413" cy="-481.2899" rx="105.218" ry="37.4533"/>
<text text-anchor="middle" x="1413" y="-492.5899" font-family="Times,serif" font-size="14.00" fill="#000000">14</text>
<text text-anchor="middle" x="1413" y="-477.5899" font-family="Times,serif" font-size="14.00" fill="#000000">(2 | 5 | &#45;7) &amp; (8 | 9)</text>
<text text-anchor="middle" x="1413" y="-462.5899" font-family="Times,serif" font-size="14.00" fill="#000000">(2 | 5 | &#45;7) &amp; (8 | 9)</text>
</g>
<!-- 7&#45;&gt;14 -->
<g id="edge13" class="edge">
<title>7&#45;&gt;14</title>
<path fill="none" stroke="#000000" d="M1438.7964,-554.6795C1435.8421,-546.2749 1432.6719,-537.2557 1429.5999,-528.516"/>
<polygon fill="#000000" stroke="#000000" points="1432.8081,-527.0885 1426.19,-518.815 1426.2042,-529.4098 1432.8081,-527.0885"/>
</g>
<!-- 15 -->
<g id="node15" class="node">
<title>15</title>
<ellipse fill="none" stroke="#000000" cx="1753" cy="-481.2899" rx="195.7372" ry="37.4533"/>
<text text-anchor="middle" x="1753" y="-492.5899" font-family="Times,serif" font-size="14.00" fill="#000000">15</text>
<text text-anchor="middle" x="1753" y="-477.5899" font-family="Times,serif" font-size="14.00" fill="#000000">(3 | 8) &amp; (2 | 5 | &#45;7) &amp; (4 | 8) &amp; (8 | 9)</text>
<text text-anchor="middle" x="1753" y="-462.5899" font-family="Times,serif" font-size="14.00" fill="#000000">(3 | 8) &amp; (2 | 5 | &#45;7) &amp; (4 | 8) &amp; (8 | 9)</text>
</g>
<!-- 7&#45;&gt;15 -->
<g id="edge14" class="edge">
<title>7&#45;&gt;15</title>
<path fill="none" stroke="#000000" d="M1545.1769,-557.8968C1579.3449,-545.3019 1618.1473,-530.9988 1652.8971,-518.1894"/>
<polygon fill="#000000" stroke="#000000" points="1654.4114,-521.3615 1662.5837,-514.6188 1651.9903,-514.7935 1654.4114,-521.3615"/>
</g>
<!-- 16 -->
<g id="node16" class="node">
<title>16</title>
<ellipse fill="none" stroke="#000000" cx="43" cy="-370.3366" rx="27" ry="26.7407"/>
<text text-anchor="middle" x="43" y="-374.1366" font-family="Times,serif" font-size="14.00" fill="#000000">16</text>
<text text-anchor="middle" x="43" y="-359.1366" font-family="Times,serif" font-size="14.00" fill="#000000">T</text>
</g>
<!-- 9&#45;&gt;16 -->
<g id="edge15" class="edge">
<title>9&#45;&gt;16</title>
<path fill="none" stroke="#000000" d="M95.1978,-448.6004C85.3122,-433.7783 73.6748,-416.3295 63.8998,-401.6732"/>
<polygon fill="#000000" stroke="#000000" points="66.547,-399.3343 58.0865,-392.9569 60.7234,-403.2184 66.547,-399.3343"/>
</g>
<!-- 17 -->
<g id="node17" class="node">
<title>17</title>
<ellipse fill="none" stroke="#000000" cx="117" cy="-370.3366" rx="28.9828" ry="37.4533"/>
<text text-anchor="middle" x="117" y="-381.6366" font-family="Times,serif" font-size="14.00" fill="#000000">17</text>
<text text-anchor="middle" x="117" y="-366.6366" font-family="Times,serif" font-size="14.00" fill="#000000">(&#45;7)</text>
<text text-anchor="middle" x="117" y="-351.6366" font-family="Times,serif" font-size="14.00" fill="#000000">(&#45;7)</text>
</g>
<!-- 9&#45;&gt;17 -->
<g id="edge16" class="edge">
<title>9&#45;&gt;17</title>
<path fill="none" stroke="#000000" d="M117,-443.7262C117,-435.5023 117,-426.69 117,-418.1269"/>
<polygon fill="#000000" stroke="#000000" points="120.5001,-417.8616 117,-407.8617 113.5001,-417.8617 120.5001,-417.8616"/>
</g>
<!-- 18 -->
<g id="node18" class="node">
<title>18</title>
<ellipse fill="none" stroke="#000000" cx="206" cy="-370.3366" rx="41.9398" ry="37.4533"/>
<text text-anchor="middle" x="206" y="-381.6366" font-family="Times,serif" font-size="14.00" fill="#000000">18</text>
<text text-anchor="middle" x="206" y="-366.6366" font-family="Times,serif" font-size="14.00" fill="#000000">(4 | 8)</text>
<text text-anchor="middle" x="206" y="-351.6366" font-family="Times,serif" font-size="14.00" fill="#000000">(4 | 8)</text>
</g>
<!-- 10&#45;&gt;18 -->
<g id="edge17" class="edge">
<title>10&#45;&gt;18</title>
<path fill="none" stroke="#000000" d="M277.1994,-445.5729C265.3834,-433.087 252.1138,-419.065 240.2607,-406.5398"/>
<polygon fill="#000000" stroke="#000000" points="242.5049,-403.8192 233.0892,-398.9617 237.4206,-408.6307 242.5049,-403.8192"/>
</g>
<!-- 19 -->
<g id="node19" class="node">
<title>19</title>
<ellipse fill="none" stroke="#000000" cx="356" cy="-370.3366" rx="89.6056" ry="37.4533"/>
<text text-anchor="middle" x="356" y="-381.6366" font-family="Times,serif" font-size="14.00" fill="#000000">19</text>
<text text-anchor="middle" x="356" y="-366.6366" font-family="Times,serif" font-size="14.00" fill="#000000">(5 | &#45;7) &amp; (4 | 8)</text>
<text text-anchor="middle" x="356" y="-351.6366" font-family="Times,serif" font-size="14.00" fill="#000000">(5 | &#45;7) &amp; (4 | 8)</text>
</g>
<!-- 10&#45;&gt;19 -->
<g id="edge18" class="edge">
<title>10&#45;&gt;19</title>
<path fill="none" stroke="#000000" d="M326.1095,-444.0354C329.6722,-435.2512 333.513,-425.7813 337.2157,-416.6518"/>
<polygon fill="#000000" stroke="#000000" points="340.4918,-417.8865 341.0069,-407.3041 334.005,-415.2555 340.4918,-417.8865"/>
</g>
<!-- 20 -->
<g id="node20" class="node">
<title>20</title>
<ellipse fill="none" stroke="#ff0000" cx="569" cy="-370.3366" rx="105.218" ry="37.4533"/>
<text text-anchor="middle" x="569" y="-381.6366" font-family="Times,serif" font-size="14.00" fill="#000000">20</text>
<text text-anchor="middle" x="569" y="-366.6366" font-family="Times,serif" font-size="14.00" fill="#000000">(2 | 5 | &#45;7) &amp; (4 | 8)</text>
<text text-anchor="middle" x="569" y="-351.6366" font-family="Times,serif" font-size="14.00" fill="#000000">(2 | 5 | &#45;7) &amp; (4 | 8)</text>
</g>
<!-- 11&#45;&gt;20 -->
<g id="edge19" class="edge">
<title>11&#45;&gt;20</title>
<path fill="none" stroke="#000000" d="M569,-443.7262C569,-435.5023 569,-426.69 569,-418.1269"/>
<polygon fill="#000000" stroke="#000000" points="572.5001,-417.8616 569,-407.8617 565.5001,-417.8617 572.5001,-417.8616"/>
</g>
<!-- 21 -->
<g id="node21" class="node">
<title>21</title>
<ellipse fill="none" stroke="#000000" cx="719" cy="-370.3366" rx="27" ry="26.7407"/>
<text text-anchor="middle" x="719" y="-374.1366" font-family="Times,serif" font-size="14.00" fill="#000000">21</text>
<text text-anchor="middle" x="719" y="-359.1366" font-family="Times,serif" font-size="14.00" fill="#000000">F</text>
</g>
<!-- 11&#45;&gt;21 -->
<g id="edge20" class="edge">
<title>11&#45;&gt;21</title>
<path fill="none" stroke="#000000" d="M627.3595,-447.3488C645.7954,-435.6748 665.8247,-421.9601 683,-407.8133 686.7213,-404.7482 690.4576,-401.3297 694.0406,-397.839"/>
<polygon fill="#000000" stroke="#000000" points="696.5908,-400.2377 701.1257,-390.6624 691.6094,-395.3198 696.5908,-400.2377"/>
</g>
<!-- 22 -->
<g id="node22" class="node">
<title>22</title>
<ellipse fill="none" stroke="#000000" cx="1228" cy="-370.3366" rx="41.9398" ry="37.4533"/>
<text text-anchor="middle" x="1228" y="-381.6366" font-family="Times,serif" font-size="14.00" fill="#000000">22</text>
<text text-anchor="middle" x="1228" y="-366.6366" font-family="Times,serif" font-size="14.00" fill="#000000">(8 | 9)</text>
<text text-anchor="middle" x="1228" y="-351.6366" font-family="Times,serif" font-size="14.00" fill="#000000">(8 | 9)</text>
</g>
<!-- 14&#45;&gt;22 -->
<g id="edge21" class="edge">
<title>14&#45;&gt;22</title>
<path fill="none" stroke="#000000" d="M1358.993,-448.8994C1331.2309,-432.2491 1297.8382,-412.2219 1271.7165,-396.5555"/>
<polygon fill="#000000" stroke="#000000" points="1273.1774,-393.3505 1262.8013,-391.2086 1269.577,-399.3536 1273.1774,-393.3505"/>
</g>
<!-- 23 -->
<g id="node23" class="node">
<title>23</title>
<ellipse fill="none" stroke="#000000" cx="1413" cy="-370.3366" rx="89.6056" ry="37.4533"/>
<text text-anchor="middle" x="1413" y="-381.6366" font-family="Times,serif" font-size="14.00" fill="#000000">23</text>
<text text-anchor="middle" x="1413" y="-366.6366" font-family="Times,serif" font-size="14.00" fill="#000000">(5 | &#45;7) &amp; (8 | 9)</text>
<text text-anchor="middle" x="1413" y="-351.6366" font-family="Times,serif" font-size="14.00" fill="#000000">(5 | &#45;7) &amp; (8 | 9)</text>
</g>
<!-- 14&#45;&gt;23 -->
<g id="edge22" class="edge">
<title>14&#45;&gt;23</title>
<path fill="none" stroke="#000000" d="M1413,-443.7262C1413,-435.5023 1413,-426.69 1413,-418.1269"/>
<polygon fill="#000000" stroke="#000000" points="1416.5001,-417.8616 1413,-407.8617 1409.5001,-417.8617 1416.5001,-417.8616"/>
</g>
<!-- 24 -->
<g id="node24" class="node">
<title>24</title>
<ellipse fill="none" stroke="#000000" cx="1753" cy="-370.3366" rx="150.7276" ry="37.4533"/>
<text text-anchor="middle" x="1753" y="-381.6366" font-family="Times,serif" font-size="14.00" fill="#000000">24</text>
<text text-anchor="middle" x="1753" y="-366.6366" font-family="Times,serif" font-size="14.00" fill="#000000">(2 | 5 | &#45;7) &amp; (4 | 8) &amp; (8 | 9)</text>
<text text-anchor="middle" x="1753" y="-351.6366" font-family="Times,serif" font-size="14.00" fill="#000000">(2 | 5 | &#45;7) &amp; (4 | 8) &amp; (8 | 9)</text>
</g>
<!-- 15&#45;&gt;24 -->
<g id="edge23" class="edge">
<title>15&#45;&gt;24</title>
<path fill="none" stroke="#000000" d="M1753,-443.7262C1753,-435.5023 1753,-426.69 1753,-418.1269"/>
<polygon fill="#000000" stroke="#000000" points="1756.5001,-417.8616 1753,-407.8617 1749.5001,-417.8617 1756.5001,-417.8616"/>
</g>
<!-- 25 -->
<g id="node25" class="node">
<title>25</title>
<ellipse fill="none" stroke="#000000" cx="2123" cy="-370.3366" rx="179.7103" ry="37.4533"/>
<text text-anchor="middle" x="2123" y="-381.6366" font-family="Times,serif" font-size="14.00" fill="#000000">25</text>
<text text-anchor="middle" x="2123" y="-366.6366" font-family="Times,serif" font-size="14.00" fill="#000000">(8) &amp; (2 | 5 | &#45;7) &amp; (4 | 8) &amp; (8 | 9)</text>
<text text-anchor="middle" x="2123" y="-351.6366" font-family="Times,serif" font-size="14.00" fill="#000000">(8) &amp; (2 | 5 | &#45;7) &amp; (4 | 8) &amp; (8 | 9)</text>
</g>
<!-- 15&#45;&gt;25 -->
<g id="edge24" class="edge">
<title>15&#45;&gt;25</title>
<path fill="none" stroke="#000000" d="M1858.532,-449.6437C1905.9917,-435.4117 1962.0664,-418.5964 2010.3408,-404.1202"/>
<polygon fill="#000000" stroke="#000000" points="2011.6285,-407.3881 2020.2017,-401.1631 2009.6178,-400.6831 2011.6285,-407.3881"/>
</g>
<!-- 26 -->
<g id="node26" class="node">
<title>26</title>
<ellipse fill="none" stroke="#000000" cx="46" cy="-259.3833" rx="27" ry="26.7407"/>
<text text-anchor="middle" x="46" y="-263.1833" font-family="Times,serif" font-size="14.00" fill="#000000">26</text>
<text text-anchor="middle" x="46" y="-248.1833" font-family="Times,serif" font-size="14.00" fill="#000000">F</text>
</g>
<!-- 17&#45;&gt;26 -->
<g id="edge25" class="edge">
<title>17&#45;&gt;26</title>
<path fill="none" stroke="#000000" d="M98.3456,-341.1849C88.5228,-325.8346 76.46,-306.9838 66.3909,-291.2486"/>
<polygon fill="#000000" stroke="#000000" points="69.0628,-288.9305 60.7247,-282.3939 63.1667,-292.7035 69.0628,-288.9305"/>
</g>
<!-- 27 -->
<g id="node27" class="node">
<title>27</title>
<ellipse fill="none" stroke="#000000" cx="118" cy="-259.3833" rx="27" ry="26.7407"/>
<text text-anchor="middle" x="118" y="-263.1833" font-family="Times,serif" font-size="14.00" fill="#000000">27</text>
<text text-anchor="middle" x="118" y="-248.1833" font-family="Times,serif" font-size="14.00" fill="#000000">T</text>
</g>
<!-- 17&#45;&gt;27 -->
<g id="edge26" class="edge">
<title>17&#45;&gt;27</title>
<path fill="none" stroke="#000000" d="M117.3386,-332.7729C117.4435,-321.1246 117.5592,-308.2961 117.664,-296.6669"/>
<polygon fill="#000000" stroke="#000000" points="121.1662,-296.4237 117.7566,-286.3925 114.1665,-296.3605 121.1662,-296.4237"/>
</g>
<!-- 28 -->
<g id="node28" class="node">
<title>28</title>
<ellipse fill="none" stroke="#000000" cx="194" cy="-259.3833" rx="27" ry="26.7407"/>
<text text-anchor="middle" x="194" y="-263.1833" font-family="Times,serif" font-size="14.00" fill="#000000">28</text>
<text text-anchor="middle" x="194" y="-248.1833" font-family="Times,serif" font-size="14.00" fill="#000000">T</text>
</g>
<!-- 18&#45;&gt;28 -->
<g id="edge27" class="edge">
<title>18&#45;&gt;28</title>
<path fill="none" stroke="#000000" d="M201.9373,-332.7729C200.6775,-321.1246 199.2901,-308.2961 198.0324,-296.6669"/>
<polygon fill="#000000" stroke="#000000" points="201.4762,-295.9582 196.9211,-286.3925 194.5168,-296.7109 201.4762,-295.9582"/>
</g>
<!-- 29 -->
<g id="node29" class="node">
<title>29</title>
<ellipse fill="none" stroke="#000000" cx="266" cy="-259.3833" rx="27" ry="37.4533"/>
<text text-anchor="middle" x="266" y="-270.6833" font-family="Times,serif" font-size="14.00" fill="#000000">29</text>
<text text-anchor="middle" x="266" y="-255.6833" font-family="Times,serif" font-size="14.00" fill="#000000">(8)</text>
<text text-anchor="middle" x="266" y="-240.6833" font-family="Times,serif" font-size="14.00" fill="#000000">(8)</text>
</g>
<!-- 18&#45;&gt;29 -->
<g id="edge28" class="edge">
<title>18&#45;&gt;29</title>
<path fill="none" stroke="#000000" d="M224.328,-336.4441C230.7542,-324.5606 238.027,-311.1117 244.6773,-298.8138"/>
<polygon fill="#000000" stroke="#000000" points="247.939,-300.14 249.6171,-289.6789 241.7817,-296.8102 247.939,-300.14"/>
</g>
<!-- 30 -->
<g id="node30" class="node">
<title>30</title>
<ellipse fill="none" stroke="#ff0000" cx="355" cy="-259.3833" rx="41.9398" ry="37.4533"/>
<text text-anchor="middle" x="355" y="-270.6833" font-family="Times,serif" font-size="14.00" fill="#000000">30</text>
<text text-anchor="middle" x="355" y="-255.6833" font-family="Times,serif" font-size="14.00" fill="#000000">(4 | 8)</text>
<text text-anchor="middle" x="355" y="-240.6833" font-family="Times,serif" font-size="14.00" fill="#000000">(4 | 8)</text>
</g>
<!-- 19&#45;&gt;30 -->
<g id="edge29" class="edge">
<title>19&#45;&gt;30</title>
<path fill="none" stroke="#000000" d="M355.6614,-332.7729C355.5873,-324.549 355.5079,-315.7367 355.4307,-307.1736"/>
<polygon fill="#000000" stroke="#000000" points="358.9283,-306.8764 355.3382,-296.9083 351.9286,-306.9395 358.9283,-306.8764"/>
</g>
<!-- 31 -->
<g id="node31" class="node">
<title>31</title>
<ellipse fill="none" stroke="#000000" cx="488" cy="-259.3833" rx="73.5782" ry="37.4533"/>
<text text-anchor="middle" x="488" y="-270.6833" font-family="Times,serif" font-size="14.00" fill="#000000">31</text>
<text text-anchor="middle" x="488" y="-255.6833" font-family="Times,serif" font-size="14.00" fill="#000000">(&#45;7) &amp; (4 | 8)</text>
<text text-anchor="middle" x="488" y="-240.6833" font-family="Times,serif" font-size="14.00" fill="#000000">(&#45;7) &amp; (4 | 8)</text>
</g>
<!-- 19&#45;&gt;31 -->
<g id="edge30" class="edge">
<title>19&#45;&gt;31</title>
<path fill="none" stroke="#000000" d="M395.9626,-336.7459C410.4368,-324.5794 426.9009,-310.7405 441.863,-298.164"/>
<polygon fill="#000000" stroke="#000000" points="444.129,-300.8316 449.5319,-291.7179 439.6249,-295.4731 444.129,-300.8316"/>
</g>
<!-- 32 -->
<g id="node32" class="node">
<title>32</title>
<ellipse fill="none" stroke="#000000" cx="1156" cy="-259.3833" rx="27" ry="26.7407"/>
<text text-anchor="middle" x="1156" y="-263.1833" font-family="Times,serif" font-size="14.00" fill="#000000">32</text>
<text text-anchor="middle" x="1156" y="-248.1833" font-family="Times,serif" font-size="14.00" fill="#000000">T</text>
</g>
<!-- 22&#45;&gt;32 -->
<g id="edge31" class="edge">
<title>22&#45;&gt;32</title>
<path fill="none" stroke="#000000" d="M1206.9811,-337.9461C1197.3565,-323.1145 1185.9933,-305.6035 1176.4401,-290.8819"/>
<polygon fill="#000000" stroke="#000000" points="1179.1372,-288.6084 1170.7576,-282.1251 1173.2652,-292.4189 1179.1372,-288.6084"/>
</g>
<!-- 33 -->
<g id="node33" class="node">
<title>33</title>
<ellipse fill="none" stroke="#000000" cx="1228" cy="-259.3833" rx="27" ry="37.4533"/>
<text text-anchor="middle" x="1228" y="-270.6833" font-family="Times,serif" font-size="14.00" fill="#000000">33</text>
<text text-anchor="middle" x="1228" y="-255.6833" font-family="Times,serif" font-size="14.00" fill="#000000">(9)</text>
<text text-anchor="middle" x="1228" y="-240.6833" font-family="Times,serif" font-size="14.00" fill="#000000">(9)</text>
</g>
<!-- 22&#45;&gt;33 -->
<g id="edge32" class="edge">
<title>22&#45;&gt;33</title>
<path fill="none" stroke="#000000" d="M1228,-332.7729C1228,-324.549 1228,-315.7367 1228,-307.1736"/>
<polygon fill="#000000" stroke="#000000" points="1231.5001,-306.9083 1228,-296.9083 1224.5001,-306.9084 1231.5001,-306.9083"/>
</g>
<!-- 34 -->
<g id="node34" class="node">
<title>34</title>
<ellipse fill="none" stroke="#ff0000" cx="1315" cy="-259.3833" rx="41.9398" ry="37.4533"/>
<text text-anchor="middle" x="1315" y="-270.6833" font-family="Times,serif" font-size="14.00" fill="#000000">34</text>
<text text-anchor="middle" x="1315" y="-255.6833" font-family="Times,serif" font-size="14.00" fill="#000000">(8 | 9)</text>
<text text-anchor="middle" x="1315" y="-240.6833" font-family="Times,serif" font-size="14.00" fill="#000000">(8 | 9)</text>
</g>
<!-- 23&#45;&gt;34 -->
<g id="edge33" class="edge">
<title>23&#45;&gt;34</title>
<path fill="none" stroke="#000000" d="M1381.7227,-334.9252C1370.8678,-322.6355 1358.6718,-308.8275 1347.7048,-296.4109"/>
<polygon fill="#000000" stroke="#000000" points="1350.3014,-294.0637 1341.0581,-288.8857 1345.0549,-298.6978 1350.3014,-294.0637"/>
</g>
<!-- 35 -->
<g id="node35" class="node">
<title>35</title>
<ellipse fill="none" stroke="#000000" cx="1448" cy="-259.3833" rx="73.5782" ry="37.4533"/>
<text text-anchor="middle" x="1448" y="-270.6833" font-family="Times,serif" font-size="14.00" fill="#000000">35</text>
<text text-anchor="middle" x="1448" y="-255.6833" font-family="Times,serif" font-size="14.00" fill="#000000">(&#45;7) &amp; (8 | 9)</text>
<text text-anchor="middle" x="1448" y="-240.6833" font-family="Times,serif" font-size="14.00" fill="#000000">(&#45;7) &amp; (8 | 9)</text>
</g>
<!-- 23&#45;&gt;35 -->
<g id="edge34" class="edge">
<title>23&#45;&gt;35</title>
<path fill="none" stroke="#000000" d="M1424.7519,-333.0821C1427.4645,-324.4828 1430.3844,-315.2264 1433.2079,-306.2755"/>
<polygon fill="#000000" stroke="#000000" points="1436.549,-307.3181 1436.2196,-296.7283 1429.8733,-305.2122 1436.549,-307.3181"/>
</g>
<!-- 36 -->
<g id="node36" class="node">
<title>36</title>
<ellipse fill="none" stroke="#000000" cx="1626" cy="-259.3833" rx="86.0347" ry="37.4533"/>
<text text-anchor="middle" x="1626" y="-270.6833" font-family="Times,serif" font-size="14.00" fill="#000000">36</text>
<text text-anchor="middle" x="1626" y="-255.6833" font-family="Times,serif" font-size="14.00" fill="#000000">(4 | 8) &amp; (8 | 9)</text>
<text text-anchor="middle" x="1626" y="-240.6833" font-family="Times,serif" font-size="14.00" fill="#000000">(4 | 8) &amp; (8 | 9)</text>
</g>
<!-- 24&#45;&gt;36 -->
<g id="edge35" class="edge">
<title>24&#45;&gt;36</title>
<path fill="none" stroke="#000000" d="M1711.4155,-334.0063C1698.9547,-323.1201 1685.2107,-311.1126 1672.4572,-299.9705"/>
<polygon fill="#000000" stroke="#000000" points="1674.4982,-297.1061 1664.6646,-293.1626 1669.8927,-302.3777 1674.4982,-297.1061"/>
</g>
<!-- 37 -->
<g id="node37" class="node">
<title>37</title>
<ellipse fill="none" stroke="#000000" cx="1865" cy="-259.3833" rx="135.1148" ry="37.4533"/>
<text text-anchor="middle" x="1865" y="-270.6833" font-family="Times,serif" font-size="14.00" fill="#000000">37</text>
<text text-anchor="middle" x="1865" y="-255.6833" font-family="Times,serif" font-size="14.00" fill="#000000">(5 | &#45;7) &amp; (4 | 8) &amp; (8 | 9)</text>
<text text-anchor="middle" x="1865" y="-240.6833" font-family="Times,serif" font-size="14.00" fill="#000000">(5 | &#45;7) &amp; (4 | 8) &amp; (8 | 9)</text>
</g>
<!-- 24&#45;&gt;37 -->
<g id="edge36" class="edge">
<title>24&#45;&gt;37</title>
<path fill="none" stroke="#000000" d="M1789.9834,-333.6989C1799.9302,-323.845 1810.7853,-313.0913 1821.0702,-302.9026"/>
<polygon fill="#000000" stroke="#000000" points="1823.7962,-305.1287 1828.4372,-295.6044 1818.8698,-300.1557 1823.7962,-305.1287"/>
</g>
<!-- 38 -->
<g id="node38" class="node">
<title>38</title>
<ellipse fill="none" stroke="#ff0000" cx="2123" cy="-259.3833" rx="105.218" ry="37.4533"/>
<text text-anchor="middle" x="2123" y="-270.6833" font-family="Times,serif" font-size="14.00" fill="#000000">38</text>
<text text-anchor="middle" x="2123" y="-255.6833" font-family="Times,serif" font-size="14.00" fill="#000000">(2 | 5 | &#45;7) &amp; (4 | 8)</text>
<text text-anchor="middle" x="2123" y="-240.6833" font-family="Times,serif" font-size="14.00" fill="#000000">(2 | 5 | &#45;7) &amp; (4 | 8)</text>
</g>
<!-- 25&#45;&gt;38 -->
<g id="edge37" class="edge">
<title>25&#45;&gt;38</title>
<path fill="none" stroke="#000000" d="M2123,-332.7729C2123,-324.549 2123,-315.7367 2123,-307.1736"/>
<polygon fill="#000000" stroke="#000000" points="2126.5001,-306.9083 2123,-296.9083 2119.5001,-306.9084 2126.5001,-306.9083"/>
</g>
<!-- 39 -->
<g id="node39" class="node">
<title>39</title>
<ellipse fill="none" stroke="#000000" cx="2273" cy="-259.3833" rx="27" ry="26.7407"/>
<text text-anchor="middle" x="2273" y="-263.1833" font-family="Times,serif" font-size="14.00" fill="#000000">39</text>
<text text-anchor="middle" x="2273" y="-248.1833" font-family="Times,serif" font-size="14.00" fill="#000000">F</text>
</g>
<!-- 25&#45;&gt;39 -->
<g id="edge38" class="edge">
<title>25&#45;&gt;39</title>
<path fill="none" stroke="#000000" d="M2183.7088,-334.9022C2201.4858,-323.5597 2220.5517,-310.4079 2237,-296.86 2240.7213,-293.7948 2244.4576,-290.3764 2248.0406,-286.8857"/>
<polygon fill="#000000" stroke="#000000" points="2250.5908,-289.2844 2255.1257,-279.7091 2245.6094,-284.3665 2250.5908,-289.2844"/>
</g>
<!-- 40 -->
<g id="node40" class="node">
<title>40</title>
<ellipse fill="none" stroke="#000000" cx="230" cy="-148.43" rx="27" ry="26.7407"/>
<text text-anchor="middle" x="230" y="-152.23" font-family="Times,serif" font-size="14.00" fill="#000000">40</text>
<text text-anchor="middle" x="230" y="-137.23" font-family="Times,serif" font-size="14.00" fill="#000000">T</text>
</g>
<!-- 29&#45;&gt;40 -->
<g id="edge39" class="edge">
<title>29&#45;&gt;40</title>
<path fill="none" stroke="#000000" d="M254.9051,-225.1883C250.6576,-212.0975 245.8055,-197.1432 241.5193,-183.9328"/>
<polygon fill="#000000" stroke="#000000" points="244.7867,-182.662 238.3712,-174.2304 238.1284,-184.8224 244.7867,-182.662"/>
</g>
<!-- 41 -->
<g id="node41" class="node">
<title>41</title>
<ellipse fill="none" stroke="#000000" cx="302" cy="-148.43" rx="27" ry="26.7407"/>
<text text-anchor="middle" x="302" y="-152.23" font-family="Times,serif" font-size="14.00" fill="#000000">41</text>
<text text-anchor="middle" x="302" y="-137.23" font-family="Times,serif" font-size="14.00" fill="#000000">F</text>
</g>
<!-- 29&#45;&gt;41 -->
<g id="edge40" class="edge">
<title>29&#45;&gt;41</title>
<path fill="none" stroke="#000000" d="M277.0949,-225.1883C281.3424,-212.0975 286.1945,-197.1432 290.4807,-183.9328"/>
<polygon fill="#000000" stroke="#000000" points="293.8716,-184.8224 293.6288,-174.2304 287.2133,-182.662 293.8716,-184.8224"/>
</g>
<!-- 42 -->
<g id="node42" class="node">
<title>42</title>
<ellipse fill="none" stroke="#000000" cx="449" cy="-148.43" rx="27" ry="26.7407"/>
<text text-anchor="middle" x="449" y="-152.23" font-family="Times,serif" font-size="14.00" fill="#000000">42</text>
<text text-anchor="middle" x="449" y="-137.23" font-family="Times,serif" font-size="14.00" fill="#000000">F</text>
</g>
<!-- 31&#45;&gt;42 -->
<g id="edge41" class="edge">
<title>31&#45;&gt;42</title>
<path fill="none" stroke="#000000" d="M475.0136,-222.4374C470.6075,-209.9024 465.7002,-195.9413 461.3455,-183.5524"/>
<polygon fill="#000000" stroke="#000000" points="464.6099,-182.2847 457.9918,-174.0112 458.006,-184.606 464.6099,-182.2847"/>
</g>
<!-- 43 -->
<g id="node43" class="node">
<title>43</title>
<ellipse fill="none" stroke="#ff0000" cx="536" cy="-148.43" rx="41.9398" ry="37.4533"/>
<text text-anchor="middle" x="536" y="-159.73" font-family="Times,serif" font-size="14.00" fill="#000000">43</text>
<text text-anchor="middle" x="536" y="-144.73" font-family="Times,serif" font-size="14.00" fill="#000000">(4 | 8)</text>
<text text-anchor="middle" x="536" y="-129.73" font-family="Times,serif" font-size="14.00" fill="#000000">(4 | 8)</text>
</g>
<!-- 31&#45;&gt;43 -->
<g id="edge42" class="edge">
<title>31&#45;&gt;43</title>
<path fill="none" stroke="#000000" d="M503.85,-222.7455C507.9888,-213.1787 512.4945,-202.7636 516.7872,-192.8409"/>
<polygon fill="#000000" stroke="#000000" points="520.0604,-194.0897 520.8187,-183.522 513.6358,-191.3103 520.0604,-194.0897"/>
</g>
<!-- 44 -->
<g id="node44" class="node">
<title>44</title>
<ellipse fill="none" stroke="#000000" cx="1186" cy="-148.43" rx="27" ry="26.7407"/>
<text text-anchor="middle" x="1186" y="-152.23" font-family="Times,serif" font-size="14.00" fill="#000000">44</text>
<text text-anchor="middle" x="1186" y="-137.23" font-family="Times,serif" font-size="14.00" fill="#000000">T</text>
</g>
<!-- 33&#45;&gt;44 -->
<g id="edge43" class="edge">
<title>33&#45;&gt;44</title>
<path fill="none" stroke="#000000" d="M1215.3986,-226.0936C1210.2655,-212.5333 1204.3309,-196.8555 1199.1436,-183.1519"/>
<polygon fill="#000000" stroke="#000000" points="1202.3342,-181.6943 1195.5206,-173.581 1195.7876,-184.1725 1202.3342,-181.6943"/>
</g>
<!-- 45 -->
<g id="node45" class="node">
<title>45</title>
<ellipse fill="none" stroke="#000000" cx="1258" cy="-148.43" rx="27" ry="26.7407"/>
<text text-anchor="middle" x="1258" y="-152.23" font-family="Times,serif" font-size="14.00" fill="#000000">45</text>
<text text-anchor="middle" x="1258" y="-137.23" font-family="Times,serif" font-size="14.00" fill="#000000">F</text>
</g>
<!-- 33&#45;&gt;45 -->
<g id="edge44" class="edge">
<title>33&#45;&gt;45</title>
<path fill="none" stroke="#000000" d="M1237.4922,-224.277C1240.9327,-211.5526 1244.822,-197.1679 1248.2817,-184.3725"/>
<polygon fill="#000000" stroke="#000000" points="1251.7159,-185.0806 1250.9474,-174.5137 1244.9585,-183.2535 1251.7159,-185.0806"/>
</g>
<!-- 46 -->
<g id="node46" class="node">
<title>46</title>
<ellipse fill="none" stroke="#000000" cx="1362" cy="-148.43" rx="27" ry="26.7407"/>
<text text-anchor="middle" x="1362" y="-152.23" font-family="Times,serif" font-size="14.00" fill="#000000">46</text>
<text text-anchor="middle" x="1362" y="-137.23" font-family="Times,serif" font-size="14.00" fill="#000000">F</text>
</g>
<!-- 35&#45;&gt;46 -->
<g id="edge45" class="edge">
<title>35&#45;&gt;46</title>
<path fill="none" stroke="#000000" d="M1420.7891,-224.277C1409.1887,-209.3107 1395.8079,-192.0474 1384.7454,-177.775"/>
<polygon fill="#000000" stroke="#000000" points="1387.4233,-175.5168 1378.5308,-169.7572 1381.8907,-179.8052 1387.4233,-175.5168"/>
</g>
<!-- 47 -->
<g id="node47" class="node">
<title>47</title>
<ellipse fill="none" stroke="#ff0000" cx="1449" cy="-148.43" rx="41.9398" ry="37.4533"/>
<text text-anchor="middle" x="1449" y="-159.73" font-family="Times,serif" font-size="14.00" fill="#000000">47</text>
<text text-anchor="middle" x="1449" y="-144.73" font-family="Times,serif" font-size="14.00" fill="#000000">(8 | 9)</text>
<text text-anchor="middle" x="1449" y="-129.73" font-family="Times,serif" font-size="14.00" fill="#000000">(8 | 9)</text>
</g>
<!-- 35&#45;&gt;47 -->
<g id="edge46" class="edge">
<title>35&#45;&gt;47</title>
<path fill="none" stroke="#000000" d="M1448.3386,-221.8196C1448.4127,-213.5956 1448.4921,-204.7834 1448.5693,-196.2203"/>
<polygon fill="#000000" stroke="#000000" points="1452.0714,-195.9862 1448.6618,-185.955 1445.0717,-195.923 1452.0714,-195.9862"/>
</g>
<!-- 48 -->
<g id="node48" class="node">
<title>48</title>
<ellipse fill="none" stroke="#ff0000" cx="1555" cy="-148.43" rx="41.9398" ry="37.4533"/>
<text text-anchor="middle" x="1555" y="-159.73" font-family="Times,serif" font-size="14.00" fill="#000000">48</text>
<text text-anchor="middle" x="1555" y="-144.73" font-family="Times,serif" font-size="14.00" fill="#000000">(8 | 9)</text>
<text text-anchor="middle" x="1555" y="-129.73" font-family="Times,serif" font-size="14.00" fill="#000000">(8 | 9)</text>
</g>
<!-- 36&#45;&gt;48 -->
<g id="edge47" class="edge">
<title>36&#45;&gt;48</title>
<path fill="none" stroke="#000000" d="M1602.7519,-223.053C1595.9228,-212.381 1588.4043,-200.6316 1581.3938,-189.6762"/>
<polygon fill="#000000" stroke="#000000" points="1584.2415,-187.6327 1575.9034,-181.0961 1578.3453,-191.4057 1584.2415,-187.6327"/>
</g>
<!-- 49 -->
<g id="node49" class="node">
<title>49</title>
<ellipse fill="none" stroke="#000000" cx="1685" cy="-148.43" rx="70.922" ry="37.4533"/>
<text text-anchor="middle" x="1685" y="-159.73" font-family="Times,serif" font-size="14.00" fill="#000000">49</text>
<text text-anchor="middle" x="1685" y="-144.73" font-family="Times,serif" font-size="14.00" fill="#000000">(8) &amp; (8 | 9)</text>
<text text-anchor="middle" x="1685" y="-129.73" font-family="Times,serif" font-size="14.00" fill="#000000">(8) &amp; (8 | 9)</text>
</g>
<!-- 36&#45;&gt;49 -->
<g id="edge48" class="edge">
<title>36&#45;&gt;49</title>
<path fill="none" stroke="#000000" d="M1645.4823,-222.7455C1650.4169,-213.4657 1655.7759,-203.3878 1660.9087,-193.7353"/>
<polygon fill="#000000" stroke="#000000" points="1664.1344,-195.1237 1665.7392,-184.6511 1657.9539,-191.8371 1664.1344,-195.1237"/>
</g>
<!-- 50 -->
<g id="node50" class="node">
<title>50</title>
<ellipse fill="none" stroke="#ff0000" cx="1863" cy="-148.43" rx="86.0347" ry="37.4533"/>
<text text-anchor="middle" x="1863" y="-159.73" font-family="Times,serif" font-size="14.00" fill="#000000">50</text>
<text text-anchor="middle" x="1863" y="-144.73" font-family="Times,serif" font-size="14.00" fill="#000000">(4 | 8) &amp; (8 | 9)</text>
<text text-anchor="middle" x="1863" y="-129.73" font-family="Times,serif" font-size="14.00" fill="#000000">(4 | 8) &amp; (8 | 9)</text>
</g>
<!-- 37&#45;&gt;50 -->
<g id="edge49" class="edge">
<title>37&#45;&gt;50</title>
<path fill="none" stroke="#000000" d="M1864.3229,-221.8196C1864.1747,-213.5956 1864.0158,-204.7834 1863.8614,-196.2203"/>
<polygon fill="#000000" stroke="#000000" points="1867.3562,-195.8903 1863.6764,-185.955 1860.3573,-196.0165 1867.3562,-195.8903"/>
</g>
<!-- 51 -->
<g id="node51" class="node">
<title>51</title>
<ellipse fill="none" stroke="#000000" cx="2086" cy="-148.43" rx="118.5882" ry="37.4533"/>
<text text-anchor="middle" x="2086" y="-159.73" font-family="Times,serif" font-size="14.00" fill="#000000">51</text>
<text text-anchor="middle" x="2086" y="-144.73" font-family="Times,serif" font-size="14.00" fill="#000000">(&#45;7) &amp; (4 | 8) &amp; (8 | 9)</text>
<text text-anchor="middle" x="2086" y="-129.73" font-family="Times,serif" font-size="14.00" fill="#000000">(&#45;7) &amp; (4 | 8) &amp; (8 | 9)</text>
</g>
<!-- 37&#45;&gt;51 -->
<g id="edge50" class="edge">
<title>37&#45;&gt;51</title>
<path fill="none" stroke="#000000" d="M1930.4103,-226.544C1956.5972,-213.3968 1986.8622,-198.2022 2013.6992,-184.7287"/>
<polygon fill="#000000" stroke="#000000" points="2015.2916,-187.8456 2022.6581,-180.2308 2012.1508,-181.5898 2015.2916,-187.8456"/>
</g>
<!-- 52 -->
<g id="node52" class="node">
<title>52</title>
<ellipse fill="none" stroke="#000000" cx="1649" cy="-37.4767" rx="27" ry="26.7407"/>
<text text-anchor="middle" x="1649" y="-41.2767" font-family="Times,serif" font-size="14.00" fill="#000000">52</text>
<text text-anchor="middle" x="1649" y="-26.2767" font-family="Times,serif" font-size="14.00" fill="#000000">T</text>
</g>
<!-- 49&#45;&gt;52 -->
<g id="edge51" class="edge">
<title>49&#45;&gt;52</title>
<path fill="none" stroke="#000000" d="M1673.0125,-111.4841C1668.9454,-98.9491 1664.4155,-84.9879 1660.3959,-72.5991"/>
<polygon fill="#000000" stroke="#000000" points="1663.7155,-71.4895 1657.3001,-63.0578 1657.0572,-73.6499 1663.7155,-71.4895"/>
</g>
<!-- 53 -->
<g id="node53" class="node">
<title>53</title>
<ellipse fill="none" stroke="#000000" cx="1721" cy="-37.4767" rx="27" ry="26.7407"/>
<text text-anchor="middle" x="1721" y="-41.2767" font-family="Times,serif" font-size="14.00" fill="#000000">53</text>
<text text-anchor="middle" x="1721" y="-26.2767" font-family="Times,serif" font-size="14.00" fill="#000000">F</text>
</g>
<!-- 49&#45;&gt;53 -->
<g id="edge52" class="edge">
<title>49&#45;&gt;53</title>
<path fill="none" stroke="#000000" d="M1696.9875,-111.4841C1701.0546,-98.9491 1705.5845,-84.9879 1709.6041,-72.5991"/>
<polygon fill="#000000" stroke="#000000" points="1712.9428,-73.6499 1712.6999,-63.0578 1706.2845,-71.4895 1712.9428,-73.6499"/>
</g>
<!-- 54 -->
<g id="node54" class="node">
<title>54</title>
<ellipse fill="none" stroke="#000000" cx="2020" cy="-37.4767" rx="27" ry="26.7407"/>
<text text-anchor="middle" x="2020" y="-41.2767" font-family="Times,serif" font-size="14.00" fill="#000000">54</text>
<text text-anchor="middle" x="2020" y="-26.2767" font-family="Times,serif" font-size="14.00" fill="#000000">F</text>
</g>
<!-- 51&#45;&gt;54 -->
<g id="edge53" class="edge">
<title>51&#45;&gt;54</title>
<path fill="none" stroke="#000000" d="M2064.023,-111.4841C2055.9185,-97.8596 2046.8119,-82.5505 2038.9934,-69.4066"/>
<polygon fill="#000000" stroke="#000000" points="2041.9348,-67.5053 2033.8144,-60.7002 2035.9187,-71.084 2041.9348,-67.5053"/>
</g>
<!-- 55 -->
<g id="node55" class="node">
<title>55</title>
<ellipse fill="none" stroke="#ff0000" cx="2151" cy="-37.4767" rx="86.0347" ry="37.4533"/>
<text text-anchor="middle" x="2151" y="-48.7767" font-family="Times,serif" font-size="14.00" fill="#000000">55</text>
<text text-anchor="middle" x="2151" y="-33.7767" font-family="Times,serif" font-size="14.00" fill="#000000">(4 | 8) &amp; (8 | 9)</text>
<text text-anchor="middle" x="2151" y="-18.7767" font-family="Times,serif" font-size="14.00" fill="#000000">(4 | 8) &amp; (8 | 9)</text>
</g>
<!-- 51&#45;&gt;55 -->
<g id="edge54" class="edge">
<title>51&#45;&gt;55</title>
<path fill="none" stroke="#000000" d="M2107.6441,-111.4841C2113.0729,-102.2173 2118.9583,-92.1711 2124.5906,-82.5569"/>
<polygon fill="#000000" stroke="#000000" points="2127.6367,-84.2813 2129.6716,-73.8837 2121.5968,-80.743 2127.6367,-84.2813"/>
</g>
<!-- stats -->
<g id="node56" class="node">
<title>stats</title>
<polygon fill="none" stroke="#000000" stroke-dasharray="1,5" points="1037.5,-777.1732 1037.5,-905.1732 1472.5,-905.1732 1472.5,-777.1732 1037.5,-777.1732"/>
<text text-anchor="middle" x="1255" y="-889.9732" font-family="Times,serif" font-size="14.00" fill="#000000">Input set processed in 0.159 seconds</text>
<text text-anchor="middle" x="1255" y="-874.9732" font-family="Times,serif" font-size="14.00" fill="#000000">Problem ID: 4fb7aa4e244a8b3f3d2f0f139afe0fbf8d4e507e</text>
<text text-anchor="middle" x="1255" y="-859.9732" font-family="Times,serif" font-size="14.00" fill="#000000">Solution mode: NORMAL</text>
<text text-anchor="middle" x="1255" y="-844.9732" font-family="Times,serif" font-size="14.00" fill="#000000">Total number of nodes: 55</text>
<text text-anchor="middle" x="1255" y="-829.9732" font-family="Times,serif" font-size="14.00" fill="#000000">Number of unique nodes: 27</text>
<text text-anchor="middle" x="1255" y="-814.9732" font-family="Times,serif" font-size="14.00" fill="#000000">Number of redundant subtrees: 10</text>
<text text-anchor="middle" x="1255" y="-799.9732" font-family="Times,serif" font-size="14.00" fill="#000000">Number of leaves nodes: 18</text>
<text text-anchor="middle" x="1255" y="-784.9732" font-family="Times,serif" font-size="14.00" fill="#000000">Current memory usage: 17.6MiB</text>
</g>
</g>
</svg>
