<?xml version="1.0" encoding="UTF-8" standalone="no"?>
<!DOCTYPE svg PUBLIC "-//W3C//DTD SVG 1.1//EN"
 "http://www.w3.org/Graphics/SVG/1.1/DTD/svg11.dtd">
<!-- Generated by graphviz version 2.40.1 (20161225.0304)
 -->
<!-- Title: %3 Pages: 1 -->
<svg width="1306pt" height="782pt"
 viewBox="0.00 0.00 1306.00 781.51" xmlns="http://www.w3.org/2000/svg" xmlns:xlink="http://www.w3.org/1999/xlink">
<g id="graph0" class="graph" transform="scale(1 1) rotate(0) translate(4 777.5067)">
<title>%3</title>
<polygon fill="#ffffff" stroke="transparent" points="-4,4 -4,-777.5067 1302,-777.5067 1302,4 -4,4"/>
<!-- 1 -->
<g id="node1" class="node">
<title>1</title>
<ellipse fill="none" stroke="#000000" cx="431" cy="-709.0067" rx="260.4308" ry="37.4533"/>
<text text-anchor="middle" x="431" y="-720.3067" font-family="Times,serif" font-size="14.00" fill="#000000">1</text>
<text text-anchor="middle" x="431" y="-705.3067" font-family="Times,serif" font-size="14.00" fill="#000000">(3 | &#45;5 | 6) &amp; (1 | 3) &amp; (5 | &#45;7) &amp; (1 | 8) &amp; (3 | 8 | 9)</text>
<text text-anchor="middle" x="431" y="-690.3067" font-family="Times,serif" font-size="14.00" fill="#000000">(3 | &#45;5 | 6) &amp; (1 | 3) &amp; (5 | &#45;7) &amp; (1 | 8) &amp; (3 | 8 | 9)</text>
</g>
<!-- 2 -->
<g id="node2" class="node">
<title>2</title>
<ellipse fill="none" stroke="#000000" cx="241" cy="-571.03" rx="135.1148" ry="37.4533"/>
<text text-anchor="middle" x="241" y="-582.33" font-family="Times,serif" font-size="14.00" fill="#000000">2</text>
<text text-anchor="middle" x="241" y="-567.33" font-family="Times,serif" font-size="14.00" fill="#000000">(1 | 3) &amp; (5 | &#45;7) &amp; (1 | 8)</text>
<text text-anchor="middle" x="241" y="-552.33" font-family="Times,serif" font-size="14.00" fill="#000000">(1 | 3) &amp; (5 | &#45;7) &amp; (1 | 8)</text>
</g>
<!-- 1&#45;&gt;2 -->
<g id="edge1" class="edge">
<title>1&#45;&gt;2</title>
<path fill="none" stroke="#000000" d="M380.0835,-672.0315C354.6914,-653.5919 323.9004,-631.2317 297.7509,-612.2422"/>
<polygon fill="#000000" stroke="#000000" points="299.5848,-609.2484 289.4366,-606.2044 295.4716,-614.9125 299.5848,-609.2484"/>
</g>
<!-- 3 -->
<g id="node3" class="node">
<title>3</title>
<ellipse fill="none" stroke="#000000" cx="622" cy="-571.03" rx="228.291" ry="37.4533"/>
<text text-anchor="middle" x="622" y="-582.33" font-family="Times,serif" font-size="14.00" fill="#000000">3</text>
<text text-anchor="middle" x="622" y="-567.33" font-family="Times,serif" font-size="14.00" fill="#000000">(&#45;5 | 6) &amp; (1 | 3) &amp; (5 | &#45;7) &amp; (1 | 8) &amp; (8 | 9)</text>
<text text-anchor="middle" x="622" y="-552.33" font-family="Times,serif" font-size="14.00" fill="#000000">(&#45;5 | 6) &amp; (1 | 3) &amp; (5 | &#45;7) &amp; (1 | 8) &amp; (8 | 9)</text>
</g>
<!-- 1&#45;&gt;3 -->
<g id="edge2" class="edge">
<title>1&#45;&gt;3</title>
<path fill="none" stroke="#000000" d="M481.9336,-672.2127C506.863,-654.204 537.0153,-632.4222 562.9487,-613.6882"/>
<polygon fill="#000000" stroke="#000000" points="565.1518,-616.4145 571.2084,-607.7215 561.0527,-610.7402 565.1518,-616.4145"/>
</g>
<!-- 4 -->
<g id="node4" class="node">
<title>4</title>
<ellipse fill="none" stroke="#000000" cx="89" cy="-460.0767" rx="44.5955" ry="37.4533"/>
<text text-anchor="middle" x="89" y="-471.3767" font-family="Times,serif" font-size="14.00" fill="#000000">4</text>
<text text-anchor="middle" x="89" y="-456.3767" font-family="Times,serif" font-size="14.00" fill="#000000">(5 | &#45;7)</text>
<text text-anchor="middle" x="89" y="-441.3767" font-family="Times,serif" font-size="14.00" fill="#000000">(5 | &#45;7)</text>
</g>
<!-- 2&#45;&gt;4 -->
<g id="edge3" class="edge">
<title>2&#45;&gt;4</title>
<path fill="none" stroke="#000000" d="M192.9063,-535.9237C173.0562,-521.4341 150.2568,-504.7915 131.0815,-490.7944"/>
<polygon fill="#000000" stroke="#000000" points="132.9687,-487.8387 122.8281,-484.7698 128.8416,-493.4927 132.9687,-487.8387"/>
</g>
<!-- 5 -->
<g id="node5" class="node">
<title>5</title>
<ellipse fill="none" stroke="#000000" cx="255" cy="-460.0767" rx="103.4757" ry="37.4533"/>
<text text-anchor="middle" x="255" y="-471.3767" font-family="Times,serif" font-size="14.00" fill="#000000">5</text>
<text text-anchor="middle" x="255" y="-456.3767" font-family="Times,serif" font-size="14.00" fill="#000000">(3) &amp; (5 | &#45;7) &amp; (8)</text>
<text text-anchor="middle" x="255" y="-441.3767" font-family="Times,serif" font-size="14.00" fill="#000000">(3) &amp; (5 | &#45;7) &amp; (8)</text>
</g>
<!-- 2&#45;&gt;5 -->
<g id="edge4" class="edge">
<title>2&#45;&gt;5</title>
<path fill="none" stroke="#000000" d="M245.7398,-533.4663C246.7889,-525.152 247.9138,-516.2364 249.0055,-507.5848"/>
<polygon fill="#000000" stroke="#000000" points="252.4856,-507.9613 250.2651,-497.6018 245.5407,-507.0849 252.4856,-507.9613"/>
</g>
<!-- 6 -->
<g id="node6" class="node">
<title>6</title>
<ellipse fill="none" stroke="#000000" cx="592" cy="-460.0767" rx="160.5265" ry="37.4533"/>
<text text-anchor="middle" x="592" y="-471.3767" font-family="Times,serif" font-size="14.00" fill="#000000">6</text>
<text text-anchor="middle" x="592" y="-456.3767" font-family="Times,serif" font-size="14.00" fill="#000000">(6) &amp; (1 | 3) &amp; (1 | 8) &amp; (8 | 9)</text>
<text text-anchor="middle" x="592" y="-441.3767" font-family="Times,serif" font-size="14.00" fill="#000000">(6) &amp; (1 | 3) &amp; (1 | 8) &amp; (8 | 9)</text>
</g>
<!-- 3&#45;&gt;6 -->
<g id="edge5" class="edge">
<title>3&#45;&gt;6</title>
<path fill="none" stroke="#000000" d="M611.8434,-533.4663C609.5709,-525.0617 607.1323,-516.0425 604.7692,-507.3028"/>
<polygon fill="#000000" stroke="#000000" points="608.135,-506.3416 602.1462,-497.6018 601.3777,-508.1687 608.135,-506.3416"/>
</g>
<!-- 7 -->
<g id="node7" class="node">
<title>7</title>
<ellipse fill="none" stroke="#000000" cx="935" cy="-460.0767" rx="164.0976" ry="37.4533"/>
<text text-anchor="middle" x="935" y="-471.3767" font-family="Times,serif" font-size="14.00" fill="#000000">7</text>
<text text-anchor="middle" x="935" y="-456.3767" font-family="Times,serif" font-size="14.00" fill="#000000">(1 | 3) &amp; (&#45;7) &amp; (1 | 8) &amp; (8 | 9)</text>
<text text-anchor="middle" x="935" y="-441.3767" font-family="Times,serif" font-size="14.00" fill="#000000">(1 | 3) &amp; (&#45;7) &amp; (1 | 8) &amp; (8 | 9)</text>
</g>
<!-- 3&#45;&gt;7 -->
<g id="edge6" class="edge">
<title>3&#45;&gt;7</title>
<path fill="none" stroke="#000000" d="M718.0374,-536.9864C755.643,-523.6558 798.7525,-508.3742 836.5847,-494.9633"/>
<polygon fill="#000000" stroke="#000000" points="837.8268,-498.2365 846.0827,-491.5964 835.488,-491.6387 837.8268,-498.2365"/>
</g>
<!-- 8 -->
<g id="node8" class="node">
<title>8</title>
<ellipse fill="none" stroke="#000000" cx="27" cy="-349.1234" rx="27" ry="26.7407"/>
<text text-anchor="middle" x="27" y="-352.9234" font-family="Times,serif" font-size="14.00" fill="#000000">8</text>
<text text-anchor="middle" x="27" y="-337.9234" font-family="Times,serif" font-size="14.00" fill="#000000">T</text>
</g>
<!-- 4&#45;&gt;8 -->
<g id="edge7" class="edge">
<title>4&#45;&gt;8</title>
<path fill="none" stroke="#000000" d="M69.8921,-425.8817C62.0116,-411.7791 52.9227,-395.5138 45.1455,-381.596"/>
<polygon fill="#000000" stroke="#000000" points="48.1835,-379.8575 40.25,-372.8353 42.0728,-383.2722 48.1835,-379.8575"/>
</g>
<!-- 9 -->
<g id="node9" class="node">
<title>9</title>
<ellipse fill="none" stroke="#000000" cx="101" cy="-349.1234" rx="28.9828" ry="37.4533"/>
<text text-anchor="middle" x="101" y="-360.4234" font-family="Times,serif" font-size="14.00" fill="#000000">9</text>
<text text-anchor="middle" x="101" y="-345.4234" font-family="Times,serif" font-size="14.00" fill="#000000">(&#45;7)</text>
<text text-anchor="middle" x="101" y="-330.4234" font-family="Times,serif" font-size="14.00" fill="#000000">(&#45;7)</text>
</g>
<!-- 4&#45;&gt;9 -->
<g id="edge8" class="edge">
<title>4&#45;&gt;9</title>
<path fill="none" stroke="#000000" d="M93.0627,-422.513C93.9716,-414.1083 94.9471,-405.0892 95.8923,-396.3495"/>
<polygon fill="#000000" stroke="#000000" points="99.3866,-396.5902 96.9823,-386.2718 92.4272,-395.8374 99.3866,-396.5902"/>
</g>
<!-- 10 -->
<g id="node10" class="node">
<title>10</title>
<ellipse fill="none" stroke="#000000" cx="244" cy="-349.1234" rx="73.5782" ry="37.4533"/>
<text text-anchor="middle" x="244" y="-360.4234" font-family="Times,serif" font-size="14.00" fill="#000000">10</text>
<text text-anchor="middle" x="244" y="-345.4234" font-family="Times,serif" font-size="14.00" fill="#000000">(5 | &#45;7) &amp; (8)</text>
<text text-anchor="middle" x="244" y="-330.4234" font-family="Times,serif" font-size="14.00" fill="#000000">(5 | &#45;7) &amp; (8)</text>
</g>
<!-- 5&#45;&gt;10 -->
<g id="edge9" class="edge">
<title>5&#45;&gt;10</title>
<path fill="none" stroke="#000000" d="M251.2759,-422.513C250.4516,-414.1987 249.5677,-405.2831 248.71,-396.6315"/>
<polygon fill="#000000" stroke="#000000" points="252.1898,-396.2543 247.7203,-386.6485 245.224,-396.945 252.1898,-396.2543"/>
</g>
<!-- 11 -->
<g id="node11" class="node">
<title>11</title>
<ellipse fill="none" stroke="#000000" cx="363" cy="-349.1234" rx="27" ry="26.7407"/>
<text text-anchor="middle" x="363" y="-352.9234" font-family="Times,serif" font-size="14.00" fill="#000000">11</text>
<text text-anchor="middle" x="363" y="-337.9234" font-family="Times,serif" font-size="14.00" fill="#000000">F</text>
</g>
<!-- 5&#45;&gt;11 -->
<g id="edge10" class="edge">
<title>5&#45;&gt;11</title>
<path fill="none" stroke="#000000" d="M289.8619,-424.6423C301.678,-412.5942 314.9367,-399.0339 327,-386.6001 330.3571,-383.1399 333.8813,-379.4913 337.3565,-375.8838"/>
<polygon fill="#000000" stroke="#000000" points="339.9428,-378.2437 344.3519,-368.6099 334.8974,-373.3914 339.9428,-378.2437"/>
</g>
<!-- 12 -->
<g id="node12" class="node">
<title>12</title>
<ellipse fill="none" stroke="#000000" cx="577" cy="-349.1234" rx="131.5437" ry="37.4533"/>
<text text-anchor="middle" x="577" y="-360.4234" font-family="Times,serif" font-size="14.00" fill="#000000">12</text>
<text text-anchor="middle" x="577" y="-345.4234" font-family="Times,serif" font-size="14.00" fill="#000000">(1 | 3) &amp; (1 | 8) &amp; (8 | 9)</text>
<text text-anchor="middle" x="577" y="-330.4234" font-family="Times,serif" font-size="14.00" fill="#000000">(1 | 3) &amp; (1 | 8) &amp; (8 | 9)</text>
</g>
<!-- 6&#45;&gt;12 -->
<g id="edge11" class="edge">
<title>6&#45;&gt;12</title>
<path fill="none" stroke="#000000" d="M586.9217,-422.513C585.7977,-414.1987 584.5923,-405.2831 583.4227,-396.6315"/>
<polygon fill="#000000" stroke="#000000" points="586.8814,-396.0894 582.0731,-386.6485 579.9445,-397.0272 586.8814,-396.0894"/>
</g>
<!-- 13 -->
<g id="node13" class="node">
<title>13</title>
<ellipse fill="none" stroke="#000000" cx="754" cy="-349.1234" rx="27" ry="26.7407"/>
<text text-anchor="middle" x="754" y="-352.9234" font-family="Times,serif" font-size="14.00" fill="#000000">13</text>
<text text-anchor="middle" x="754" y="-337.9234" font-family="Times,serif" font-size="14.00" fill="#000000">F</text>
</g>
<!-- 6&#45;&gt;13 -->
<g id="edge12" class="edge">
<title>6&#45;&gt;13</title>
<path fill="none" stroke="#000000" d="M658.6616,-425.7993C678.5026,-414.4013 699.7914,-400.9288 718,-386.6001 721.7887,-383.6187 725.5643,-380.249 729.1672,-376.7831"/>
<polygon fill="#000000" stroke="#000000" points="731.709,-379.1905 736.2689,-369.6271 726.7405,-374.2596 731.709,-379.1905"/>
</g>
<!-- 14 -->
<g id="node14" class="node">
<title>14</title>
<ellipse fill="none" stroke="#000000" cx="933" cy="-349.1234" rx="73.5782" ry="37.4533"/>
<text text-anchor="middle" x="933" y="-360.4234" font-family="Times,serif" font-size="14.00" fill="#000000">14</text>
<text text-anchor="middle" x="933" y="-345.4234" font-family="Times,serif" font-size="14.00" fill="#000000">(&#45;7) &amp; (8 | 9)</text>
<text text-anchor="middle" x="933" y="-330.4234" font-family="Times,serif" font-size="14.00" fill="#000000">(&#45;7) &amp; (8 | 9)</text>
</g>
<!-- 7&#45;&gt;14 -->
<g id="edge13" class="edge">
<title>7&#45;&gt;14</title>
<path fill="none" stroke="#000000" d="M934.3229,-422.513C934.1747,-414.2891 934.0158,-405.4768 933.8614,-396.9137"/>
<polygon fill="#000000" stroke="#000000" points="937.3562,-396.5837 933.6764,-386.6485 930.3573,-396.7099 937.3562,-396.5837"/>
</g>
<!-- 15 -->
<g id="node15" class="node">
<title>15</title>
<ellipse fill="none" stroke="#000000" cx="1157" cy="-349.1234" rx="132.4583" ry="37.4533"/>
<text text-anchor="middle" x="1157" y="-360.4234" font-family="Times,serif" font-size="14.00" fill="#000000">15</text>
<text text-anchor="middle" x="1157" y="-345.4234" font-family="Times,serif" font-size="14.00" fill="#000000">(3) &amp; (&#45;7) &amp; (8) &amp; (8 | 9)</text>
<text text-anchor="middle" x="1157" y="-330.4234" font-family="Times,serif" font-size="14.00" fill="#000000">(3) &amp; (&#45;7) &amp; (8) &amp; (8 | 9)</text>
</g>
<!-- 7&#45;&gt;15 -->
<g id="edge14" class="edge">
<title>7&#45;&gt;15</title>
<path fill="none" stroke="#000000" d="M1003.4188,-425.8817C1028.3812,-413.4057 1056.7302,-399.2372 1082.2179,-386.4988"/>
<polygon fill="#000000" stroke="#000000" points="1084.0867,-389.4776 1091.467,-381.8761 1080.9573,-383.216 1084.0867,-389.4776"/>
</g>
<!-- 16 -->
<g id="node16" class="node">
<title>16</title>
<ellipse fill="none" stroke="#000000" cx="53" cy="-238.1701" rx="27" ry="26.7407"/>
<text text-anchor="middle" x="53" y="-241.9701" font-family="Times,serif" font-size="14.00" fill="#000000">16</text>
<text text-anchor="middle" x="53" y="-226.9701" font-family="Times,serif" font-size="14.00" fill="#000000">F</text>
</g>
<!-- 9&#45;&gt;16 -->
<g id="edge15" class="edge">
<title>9&#45;&gt;16</title>
<path fill="none" stroke="#000000" d="M86.7284,-316.1342C80.7558,-302.3283 73.8156,-286.2859 67.7889,-272.3551"/>
<polygon fill="#000000" stroke="#000000" points="70.9686,-270.8898 63.7857,-263.1015 64.544,-273.6692 70.9686,-270.8898"/>
</g>
<!-- 17 -->
<g id="node17" class="node">
<title>17</title>
<ellipse fill="none" stroke="#000000" cx="125" cy="-238.1701" rx="27" ry="26.7407"/>
<text text-anchor="middle" x="125" y="-241.9701" font-family="Times,serif" font-size="14.00" fill="#000000">17</text>
<text text-anchor="middle" x="125" y="-226.9701" font-family="Times,serif" font-size="14.00" fill="#000000">T</text>
</g>
<!-- 9&#45;&gt;17 -->
<g id="edge16" class="edge">
<title>9&#45;&gt;17</title>
<path fill="none" stroke="#000000" d="M108.8585,-312.7931C111.5072,-300.548 114.4627,-286.8844 117.1136,-274.6294"/>
<polygon fill="#000000" stroke="#000000" points="120.5618,-275.2425 119.2552,-264.7285 113.7201,-273.7625 120.5618,-275.2425"/>
</g>
<!-- 18 -->
<g id="node18" class="node">
<title>18</title>
<ellipse fill="none" stroke="#000000" cx="221" cy="-238.1701" rx="27" ry="37.4533"/>
<text text-anchor="middle" x="221" y="-249.4701" font-family="Times,serif" font-size="14.00" fill="#000000">18</text>
<text text-anchor="middle" x="221" y="-234.4701" font-family="Times,serif" font-size="14.00" fill="#000000">(8)</text>
<text text-anchor="middle" x="221" y="-219.4701" font-family="Times,serif" font-size="14.00" fill="#000000">(8)</text>
</g>
<!-- 10&#45;&gt;18 -->
<g id="edge17" class="edge">
<title>10&#45;&gt;18</title>
<path fill="none" stroke="#000000" d="M236.2132,-311.5597C234.3953,-302.7896 232.4386,-293.3504 230.5537,-284.2579"/>
<polygon fill="#000000" stroke="#000000" points="233.9245,-283.2748 228.4674,-274.1935 227.0702,-284.6957 233.9245,-283.2748"/>
</g>
<!-- 19 -->
<g id="node19" class="node">
<title>19</title>
<ellipse fill="none" stroke="#000000" cx="324" cy="-238.1701" rx="57.9655" ry="37.4533"/>
<text text-anchor="middle" x="324" y="-249.4701" font-family="Times,serif" font-size="14.00" fill="#000000">19</text>
<text text-anchor="middle" x="324" y="-234.4701" font-family="Times,serif" font-size="14.00" fill="#000000">(&#45;7) &amp; (8)</text>
<text text-anchor="middle" x="324" y="-219.4701" font-family="Times,serif" font-size="14.00" fill="#000000">(&#45;7) &amp; (8)</text>
</g>
<!-- 10&#45;&gt;19 -->
<g id="edge18" class="edge">
<title>10&#45;&gt;19</title>
<path fill="none" stroke="#000000" d="M269.5325,-313.712C277.1118,-303.2001 285.4921,-291.5773 293.3604,-280.6646"/>
<polygon fill="#000000" stroke="#000000" points="296.2463,-282.6466 299.2559,-272.4882 290.5683,-278.5526 296.2463,-282.6466"/>
</g>
<!-- 20 -->
<g id="node20" class="node">
<title>20</title>
<ellipse fill="none" stroke="#000000" cx="560" cy="-238.1701" rx="41.9398" ry="37.4533"/>
<text text-anchor="middle" x="560" y="-249.4701" font-family="Times,serif" font-size="14.00" fill="#000000">20</text>
<text text-anchor="middle" x="560" y="-234.4701" font-family="Times,serif" font-size="14.00" fill="#000000">(8 | 9)</text>
<text text-anchor="middle" x="560" y="-219.4701" font-family="Times,serif" font-size="14.00" fill="#000000">(8 | 9)</text>
</g>
<!-- 12&#45;&gt;20 -->
<g id="edge19" class="edge">
<title>12&#45;&gt;20</title>
<path fill="none" stroke="#000000" d="M571.2446,-311.5597C569.9568,-303.155 568.5749,-294.1359 567.2359,-285.3962"/>
<polygon fill="#000000" stroke="#000000" points="570.666,-284.673 565.6918,-275.3184 563.7467,-285.7332 570.666,-284.673"/>
</g>
<!-- 21 -->
<g id="node21" class="node">
<title>21</title>
<ellipse fill="none" stroke="#000000" cx="719" cy="-238.1701" rx="99.9045" ry="37.4533"/>
<text text-anchor="middle" x="719" y="-249.4701" font-family="Times,serif" font-size="14.00" fill="#000000">21</text>
<text text-anchor="middle" x="719" y="-234.4701" font-family="Times,serif" font-size="14.00" fill="#000000">(3) &amp; (8) &amp; (8 | 9)</text>
<text text-anchor="middle" x="719" y="-219.4701" font-family="Times,serif" font-size="14.00" fill="#000000">(3) &amp; (8) &amp; (8 | 9)</text>
</g>
<!-- 12&#45;&gt;21 -->
<g id="edge20" class="edge">
<title>12&#45;&gt;21</title>
<path fill="none" stroke="#000000" d="M622.3201,-313.712C636.7018,-302.4747 652.7081,-289.968 667.4922,-278.4163"/>
<polygon fill="#000000" stroke="#000000" points="669.8369,-281.026 675.5618,-272.111 665.527,-275.5101 669.8369,-281.026"/>
</g>
<!-- 22 -->
<g id="node22" class="node">
<title>22</title>
<ellipse fill="none" stroke="#000000" cx="870" cy="-238.1701" rx="27" ry="26.7407"/>
<text text-anchor="middle" x="870" y="-241.9701" font-family="Times,serif" font-size="14.00" fill="#000000">22</text>
<text text-anchor="middle" x="870" y="-226.9701" font-family="Times,serif" font-size="14.00" fill="#000000">F</text>
</g>
<!-- 14&#45;&gt;22 -->
<g id="edge21" class="edge">
<title>14&#45;&gt;22</title>
<path fill="none" stroke="#000000" d="M912.5457,-313.1C904.7806,-299.4244 895.9901,-283.9429 888.4235,-270.6169"/>
<polygon fill="#000000" stroke="#000000" points="891.3895,-268.752 883.4083,-261.7842 885.3023,-272.2084 891.3895,-268.752"/>
</g>
<!-- 23 -->
<g id="node23" class="node">
<title>23</title>
<ellipse fill="none" stroke="#ff0000" cx="957" cy="-238.1701" rx="41.9398" ry="37.4533"/>
<text text-anchor="middle" x="957" y="-249.4701" font-family="Times,serif" font-size="14.00" fill="#000000">23</text>
<text text-anchor="middle" x="957" y="-234.4701" font-family="Times,serif" font-size="14.00" fill="#000000">(8 | 9)</text>
<text text-anchor="middle" x="957" y="-219.4701" font-family="Times,serif" font-size="14.00" fill="#000000">(8 | 9)</text>
</g>
<!-- 14&#45;&gt;23 -->
<g id="edge22" class="edge">
<title>14&#45;&gt;23</title>
<path fill="none" stroke="#000000" d="M941.0584,-311.8689C942.9185,-303.2696 944.9207,-294.0132 946.8569,-285.0623"/>
<polygon fill="#000000" stroke="#000000" points="950.3103,-285.6516 949.0037,-275.1376 943.4685,-284.1716 950.3103,-285.6516"/>
</g>
<!-- 24 -->
<g id="node24" class="node">
<title>24</title>
<ellipse fill="none" stroke="#000000" cx="1123" cy="-238.1701" rx="103.4757" ry="37.4533"/>
<text text-anchor="middle" x="1123" y="-249.4701" font-family="Times,serif" font-size="14.00" fill="#000000">24</text>
<text text-anchor="middle" x="1123" y="-234.4701" font-family="Times,serif" font-size="14.00" fill="#000000">(&#45;7) &amp; (8) &amp; (8 | 9)</text>
<text text-anchor="middle" x="1123" y="-219.4701" font-family="Times,serif" font-size="14.00" fill="#000000">(&#45;7) &amp; (8) &amp; (8 | 9)</text>
</g>
<!-- 15&#45;&gt;24 -->
<g id="edge23" class="edge">
<title>15&#45;&gt;24</title>
<path fill="none" stroke="#000000" d="M1145.4892,-311.5597C1142.9137,-303.155 1140.1499,-294.1359 1137.4717,-285.3962"/>
<polygon fill="#000000" stroke="#000000" points="1140.7753,-284.2308 1134.499,-275.6951 1134.0825,-286.2818 1140.7753,-284.2308"/>
</g>
<!-- 25 -->
<g id="node25" class="node">
<title>25</title>
<ellipse fill="none" stroke="#000000" cx="1271" cy="-238.1701" rx="27" ry="26.7407"/>
<text text-anchor="middle" x="1271" y="-241.9701" font-family="Times,serif" font-size="14.00" fill="#000000">25</text>
<text text-anchor="middle" x="1271" y="-226.9701" font-family="Times,serif" font-size="14.00" fill="#000000">F</text>
</g>
<!-- 15&#45;&gt;25 -->
<g id="edge24" class="edge">
<title>15&#45;&gt;25</title>
<path fill="none" stroke="#000000" d="M1195.847,-313.2486C1208.463,-301.4074 1222.442,-288.0828 1235,-275.6468 1238.4256,-272.2544 1241.9897,-268.6453 1245.4852,-265.0578"/>
<polygon fill="#000000" stroke="#000000" points="1248.0658,-267.4241 1252.4975,-257.8007 1243.0318,-262.56 1248.0658,-267.4241"/>
</g>
<!-- 26 -->
<g id="node26" class="node">
<title>26</title>
<ellipse fill="none" stroke="#000000" cx="157" cy="-127.2168" rx="27" ry="26.7407"/>
<text text-anchor="middle" x="157" y="-131.0168" font-family="Times,serif" font-size="14.00" fill="#000000">26</text>
<text text-anchor="middle" x="157" y="-116.0168" font-family="Times,serif" font-size="14.00" fill="#000000">T</text>
</g>
<!-- 18&#45;&gt;26 -->
<g id="edge25" class="edge">
<title>18&#45;&gt;26</title>
<path fill="none" stroke="#000000" d="M204.0172,-208.7279C195.2875,-193.5938 184.6295,-175.1165 175.6694,-159.5829"/>
<polygon fill="#000000" stroke="#000000" points="178.6458,-157.738 170.6174,-150.8246 172.5822,-161.2356 178.6458,-157.738"/>
</g>
<!-- 27 -->
<g id="node27" class="node">
<title>27</title>
<ellipse fill="none" stroke="#000000" cx="229" cy="-127.2168" rx="27" ry="26.7407"/>
<text text-anchor="middle" x="229" y="-131.0168" font-family="Times,serif" font-size="14.00" fill="#000000">27</text>
<text text-anchor="middle" x="229" y="-116.0168" font-family="Times,serif" font-size="14.00" fill="#000000">F</text>
</g>
<!-- 18&#45;&gt;27 -->
<g id="edge26" class="edge">
<title>18&#45;&gt;27</title>
<path fill="none" stroke="#000000" d="M223.7084,-200.6064C224.5483,-188.9581 225.4733,-176.1296 226.3118,-164.5004"/>
<polygon fill="#000000" stroke="#000000" points="229.8243,-164.4518 227.0526,-154.226 222.8424,-163.9484 229.8243,-164.4518"/>
</g>
<!-- 28 -->
<g id="node28" class="node">
<title>28</title>
<ellipse fill="none" stroke="#000000" cx="316" cy="-127.2168" rx="27" ry="26.7407"/>
<text text-anchor="middle" x="316" y="-131.0168" font-family="Times,serif" font-size="14.00" fill="#000000">28</text>
<text text-anchor="middle" x="316" y="-116.0168" font-family="Times,serif" font-size="14.00" fill="#000000">F</text>
</g>
<!-- 19&#45;&gt;28 -->
<g id="edge27" class="edge">
<title>19&#45;&gt;28</title>
<path fill="none" stroke="#000000" d="M321.2916,-200.6064C320.4517,-188.9581 319.5267,-176.1296 318.6882,-164.5004"/>
<polygon fill="#000000" stroke="#000000" points="322.1576,-163.9484 317.9474,-154.226 315.1757,-164.4518 322.1576,-163.9484"/>
</g>
<!-- 29 -->
<g id="node29" class="node">
<title>29</title>
<ellipse fill="none" stroke="#ff0000" cx="388" cy="-127.2168" rx="27" ry="37.4533"/>
<text text-anchor="middle" x="388" y="-138.5168" font-family="Times,serif" font-size="14.00" fill="#000000">29</text>
<text text-anchor="middle" x="388" y="-123.5168" font-family="Times,serif" font-size="14.00" fill="#000000">(8)</text>
<text text-anchor="middle" x="388" y="-108.5168" font-family="Times,serif" font-size="14.00" fill="#000000">(8)</text>
</g>
<!-- 19&#45;&gt;29 -->
<g id="edge28" class="edge">
<title>19&#45;&gt;29</title>
<path fill="none" stroke="#000000" d="M344.426,-202.7587C351.2474,-190.9328 358.8798,-177.701 365.8276,-165.6559"/>
<polygon fill="#000000" stroke="#000000" points="369.0176,-167.1302 370.9825,-156.7192 362.9541,-163.6326 369.0176,-167.1302"/>
</g>
<!-- 30 -->
<g id="node30" class="node">
<title>30</title>
<ellipse fill="none" stroke="#000000" cx="495" cy="-127.2168" rx="27" ry="26.7407"/>
<text text-anchor="middle" x="495" y="-131.0168" font-family="Times,serif" font-size="14.00" fill="#000000">30</text>
<text text-anchor="middle" x="495" y="-116.0168" font-family="Times,serif" font-size="14.00" fill="#000000">T</text>
</g>
<!-- 20&#45;&gt;30 -->
<g id="edge29" class="edge">
<title>20&#45;&gt;30</title>
<path fill="none" stroke="#000000" d="M540.4979,-204.8804C532.0928,-190.5332 522.2991,-173.8156 513.9557,-159.5737"/>
<polygon fill="#000000" stroke="#000000" points="516.7864,-157.4813 508.7116,-150.6221 510.7465,-161.0197 516.7864,-157.4813"/>
</g>
<!-- 31 -->
<g id="node31" class="node">
<title>31</title>
<ellipse fill="none" stroke="#000000" cx="567" cy="-127.2168" rx="27" ry="37.4533"/>
<text text-anchor="middle" x="567" y="-138.5168" font-family="Times,serif" font-size="14.00" fill="#000000">31</text>
<text text-anchor="middle" x="567" y="-123.5168" font-family="Times,serif" font-size="14.00" fill="#000000">(9)</text>
<text text-anchor="middle" x="567" y="-108.5168" font-family="Times,serif" font-size="14.00" fill="#000000">(9)</text>
</g>
<!-- 20&#45;&gt;31 -->
<g id="edge30" class="edge">
<title>20&#45;&gt;31</title>
<path fill="none" stroke="#000000" d="M562.3699,-200.6064C562.8944,-192.2921 563.4569,-183.3765 564.0027,-174.7249"/>
<polygon fill="#000000" stroke="#000000" points="567.4959,-174.9424 564.6326,-164.7418 560.5098,-174.5016 567.4959,-174.9424"/>
</g>
<!-- 32 -->
<g id="node32" class="node">
<title>32</title>
<ellipse fill="none" stroke="#000000" cx="707" cy="-127.2168" rx="70.922" ry="37.4533"/>
<text text-anchor="middle" x="707" y="-138.5168" font-family="Times,serif" font-size="14.00" fill="#000000">32</text>
<text text-anchor="middle" x="707" y="-123.5168" font-family="Times,serif" font-size="14.00" fill="#000000">(8) &amp; (8 | 9)</text>
<text text-anchor="middle" x="707" y="-108.5168" font-family="Times,serif" font-size="14.00" fill="#000000">(8) &amp; (8 | 9)</text>
</g>
<!-- 21&#45;&gt;32 -->
<g id="edge31" class="edge">
<title>21&#45;&gt;32</title>
<path fill="none" stroke="#000000" d="M714.9373,-200.6064C714.0381,-192.2921 713.0739,-183.3765 712.1382,-174.7249"/>
<polygon fill="#000000" stroke="#000000" points="715.6135,-174.3075 711.0585,-164.7418 708.6541,-175.0602 715.6135,-174.3075"/>
</g>
<!-- 33 -->
<g id="node33" class="node">
<title>33</title>
<ellipse fill="none" stroke="#000000" cx="823" cy="-127.2168" rx="27" ry="26.7407"/>
<text text-anchor="middle" x="823" y="-131.0168" font-family="Times,serif" font-size="14.00" fill="#000000">33</text>
<text text-anchor="middle" x="823" y="-116.0168" font-family="Times,serif" font-size="14.00" fill="#000000">F</text>
</g>
<!-- 21&#45;&gt;33 -->
<g id="edge32" class="edge">
<title>21&#45;&gt;33</title>
<path fill="none" stroke="#000000" d="M752.1922,-202.7587C766.7379,-187.2405 783.5527,-169.3015 797.1456,-154.7998"/>
<polygon fill="#000000" stroke="#000000" points="800.0457,-156.8236 804.3309,-147.1341 794.9385,-152.0365 800.0457,-156.8236"/>
</g>
<!-- 34 -->
<g id="node34" class="node">
<title>34</title>
<ellipse fill="none" stroke="#000000" cx="1065" cy="-127.2168" rx="27" ry="26.7407"/>
<text text-anchor="middle" x="1065" y="-131.0168" font-family="Times,serif" font-size="14.00" fill="#000000">34</text>
<text text-anchor="middle" x="1065" y="-116.0168" font-family="Times,serif" font-size="14.00" fill="#000000">F</text>
</g>
<!-- 24&#45;&gt;34 -->
<g id="edge33" class="edge">
<title>24&#45;&gt;34</title>
<path fill="none" stroke="#000000" d="M1103.6868,-201.2242C1096.7393,-187.9337 1088.9537,-173.04 1082.1983,-160.117"/>
<polygon fill="#000000" stroke="#000000" points="1085.2226,-158.3471 1077.4881,-151.1064 1079.019,-161.59 1085.2226,-158.3471"/>
</g>
<!-- 35 -->
<g id="node35" class="node">
<title>35</title>
<ellipse fill="none" stroke="#ff0000" cx="1181" cy="-127.2168" rx="70.922" ry="37.4533"/>
<text text-anchor="middle" x="1181" y="-138.5168" font-family="Times,serif" font-size="14.00" fill="#000000">35</text>
<text text-anchor="middle" x="1181" y="-123.5168" font-family="Times,serif" font-size="14.00" fill="#000000">(8) &amp; (8 | 9)</text>
<text text-anchor="middle" x="1181" y="-108.5168" font-family="Times,serif" font-size="14.00" fill="#000000">(8) &amp; (8 | 9)</text>
</g>
<!-- 24&#45;&gt;35 -->
<g id="edge34" class="edge">
<title>24&#45;&gt;35</title>
<path fill="none" stroke="#000000" d="M1142.3132,-201.2242C1147.1079,-192.052 1152.3018,-182.1161 1157.2807,-172.5914"/>
<polygon fill="#000000" stroke="#000000" points="1160.4375,-174.1075 1161.9685,-163.6239 1154.234,-170.8646 1160.4375,-174.1075"/>
</g>
<!-- 36 -->
<g id="node36" class="node">
<title>36</title>
<ellipse fill="none" stroke="#000000" cx="550" cy="-26.8701" rx="27" ry="26.7407"/>
<text text-anchor="middle" x="550" y="-30.6701" font-family="Times,serif" font-size="14.00" fill="#000000">36</text>
<text text-anchor="middle" x="550" y="-15.6701" font-family="Times,serif" font-size="14.00" fill="#000000">T</text>
</g>
<!-- 31&#45;&gt;36 -->
<g id="edge35" class="edge">
<title>31&#45;&gt;36</title>
<path fill="none" stroke="#000000" d="M560.8145,-90.7054C559.3133,-81.8444 557.7079,-72.3679 556.2058,-63.5013"/>
<polygon fill="#000000" stroke="#000000" points="559.6236,-62.7212 554.5024,-53.4463 552.7219,-63.8905 559.6236,-62.7212"/>
</g>
<!-- 37 -->
<g id="node37" class="node">
<title>37</title>
<ellipse fill="none" stroke="#000000" cx="622" cy="-26.8701" rx="27" ry="26.7407"/>
<text text-anchor="middle" x="622" y="-30.6701" font-family="Times,serif" font-size="14.00" fill="#000000">37</text>
<text text-anchor="middle" x="622" y="-15.6701" font-family="Times,serif" font-size="14.00" fill="#000000">F</text>
</g>
<!-- 31&#45;&gt;37 -->
<g id="edge36" class="edge">
<title>31&#45;&gt;37</title>
<path fill="none" stroke="#000000" d="M583.3529,-97.3811C589.863,-85.5035 597.3764,-71.7954 604.0377,-59.6421"/>
<polygon fill="#000000" stroke="#000000" points="607.1975,-61.1589 608.9347,-50.7075 601.0591,-57.7944 607.1975,-61.1589"/>
</g>
<!-- 38 -->
<g id="node38" class="node">
<title>38</title>
<ellipse fill="none" stroke="#000000" cx="701" cy="-26.8701" rx="27" ry="26.7407"/>
<text text-anchor="middle" x="701" y="-30.6701" font-family="Times,serif" font-size="14.00" fill="#000000">38</text>
<text text-anchor="middle" x="701" y="-15.6701" font-family="Times,serif" font-size="14.00" fill="#000000">T</text>
</g>
<!-- 32&#45;&gt;38 -->
<g id="edge37" class="edge">
<title>32&#45;&gt;38</title>
<path fill="none" stroke="#000000" d="M704.7488,-89.5659C704.2484,-81.1979 703.7184,-72.3334 703.2193,-63.987"/>
<polygon fill="#000000" stroke="#000000" points="706.699,-63.5416 702.6083,-53.7684 699.7115,-63.9595 706.699,-63.5416"/>
</g>
<!-- 39 -->
<g id="node39" class="node">
<title>39</title>
<ellipse fill="none" stroke="#000000" cx="773" cy="-26.8701" rx="27" ry="26.7407"/>
<text text-anchor="middle" x="773" y="-30.6701" font-family="Times,serif" font-size="14.00" fill="#000000">39</text>
<text text-anchor="middle" x="773" y="-15.6701" font-family="Times,serif" font-size="14.00" fill="#000000">F</text>
</g>
<!-- 32&#45;&gt;39 -->
<g id="edge38" class="edge">
<title>32&#45;&gt;39</title>
<path fill="none" stroke="#000000" d="M730.455,-91.5557C737.6337,-80.6412 745.4717,-68.7242 752.4421,-58.1264"/>
<polygon fill="#000000" stroke="#000000" points="755.4887,-59.8636 758.0597,-49.5854 749.6403,-56.017 755.4887,-59.8636"/>
</g>
<!-- stats -->
<g id="node40" class="node">
<title>stats</title>
<polygon fill="none" stroke="#000000" stroke-dasharray="1,5" points="709.5,-645.0067 709.5,-773.0067 1164.5,-773.0067 1164.5,-645.0067 709.5,-645.0067"/>
<text text-anchor="middle" x="937" y="-757.8067" font-family="Times,serif" font-size="14.00" fill="#000000">Input set processed in 0.215 seconds</text>
<text text-anchor="middle" x="937" y="-742.8067" font-family="Times,serif" font-size="14.00" fill="#000000">Problem ID: 57257667bdfa9c60eef41021709133ac78848c10</text>
<text text-anchor="middle" x="937" y="-727.8067" font-family="Times,serif" font-size="14.00" fill="#000000">Solution mode: NORMAL</text>
<text text-anchor="middle" x="937" y="-712.8067" font-family="Times,serif" font-size="14.00" fill="#000000">Total number of nodes: 39</text>
<text text-anchor="middle" x="937" y="-697.8067" font-family="Times,serif" font-size="14.00" fill="#000000">Number of unique nodes: 19</text>
<text text-anchor="middle" x="937" y="-682.8067" font-family="Times,serif" font-size="14.00" fill="#000000">Number of redundant subtrees: 3</text>
<text text-anchor="middle" x="937" y="-667.8067" font-family="Times,serif" font-size="14.00" fill="#000000">Number of leaves nodes: 17</text>
<text text-anchor="middle" x="937" y="-652.8067" font-family="Times,serif" font-size="14.00" fill="#000000">Current memory usage: 17.6MiB</text>
</g>
</g>
</svg>
